<?xml version="1.0" standalone="no"?>
<!DOCTYPE svg PUBLIC "-//W3C//DTD SVG 1.1//EN" "http://www.w3.org/Graphics/SVG/1.1/DTD/svg11.dtd" >
<svg xmlns="http://www.w3.org/2000/svg">
<metadata>
This is a custom SVG webfont generated by Font Squirrel.
Copyright   :  Copyright c 2006 All rights reserved Parry is a design by Artur Schmal published by OurType wwwourtypecom
Designer    : Artur Schmal
Foundry     : OurType
Foundry URL : httpwwwourtypecom
</metadata>
<defs>
<font id="webfonth1mGzB0K" horiz-adv-x="1232" >
<font-face units-per-em="2048" ascent="1565" descent="-483" />
<missing-glyph horiz-adv-x="448" />
<glyph unicode=" "  horiz-adv-x="448" />
<glyph unicode="&#x09;" horiz-adv-x="448" />
<glyph unicode="&#xa0;" horiz-adv-x="448" />
<glyph unicode="!" horiz-adv-x="614" d="M215 475q-20 68 -40.5 268.5t-20.5 343.5v353h307v-353q0 -141 -20.5 -342.5t-43.5 -269.5h-182zM305 -16q-70 0 -118 45t-48 116.5t46 116.5t120 45t120 -45t46 -116.5t-45 -116.5t-121 -45z" />
<glyph unicode="&#x22;" horiz-adv-x="792" d="M522 1010q-57 188 -57 327v103h254v-103q0 -150 -60 -327h-137zM137 1010q-57 211 -57 327v103h254v-103q0 -139 -58 -327h-139z" />
<glyph unicode="#" d="M102 887v180h215l37 389l197 -20l-35 -369h266l35 389l197 -20l-33 -369h180v-180h-198l-31 -332h198v-180h-217l-34 -391l-197 20l35 371h-266l-37 -391l-197 20l35 371h-182v180h200l29 332h-197zM498 887l-29 -332h264l31 332h-266z" />
<glyph unicode="$" d="M98 -16l-16 585h127q35 -57 65.5 -144t38.5 -155q109 -115 275 -114v430l-117 39q-367 115 -367 417q0 190 128 306t333 116h23v135h80v-143q131 -27 204 -119q33 92 74 127h123v-559h-133q-68 104 -82 301q-78 76 -186 80v-434l108 -35q184 -59 284.5 -154.5 t100.5 -263.5q0 -205 -140 -314.5t-345 -109.5h-8v-168h-80v175q-193 25 -289 137q-33 -82 -90 -135h-111zM838 356.5q0 75.5 -41 119.5t-129 81v-395q82 16 126 67.5t44 127zM424 1092q0 -84 39 -130.5t125 -80.5v403q-80 -14 -122 -64t-42 -128z" />
<glyph unicode="%" horiz-adv-x="2048" d="M506 625q-217 0 -336 109.5t-119 303.5q0 193 119 300.5t336 107.5q221 0 339 -106.5t118 -301.5q0 -193 -120 -303t-337 -110zM690 -16l-117 59l785 1446l117 -59zM1538 -16q-219 0 -337 109.5t-118 303.5q0 193 119 301.5t336 108.5q221 0 339 -107.5t118 -302.5 q0 -193 -120 -303t-337 -110zM506 780q88 0 126 64.5t38 193.5q0 125 -38 187.5t-126 62.5t-125 -62.5t-37 -187.5q0 -258 162 -258zM1538 139q88 0 126 64.5t38 193.5q0 125 -38 187.5t-126 62.5t-125 -62.5t-37 -187.5q0 -258 162 -258z" />
<glyph unicode="&#x26;" horiz-adv-x="1691" d="M662 -25q-272 0 -430 107.5t-158 302.5q0 154 97 253t228 142q-129 160 -129 310q0 184 114 279t314 95q178 0 280.5 -80.5t102.5 -230.5q0 -233 -321 -362l399 -396q57 104 68 226q-106 6 -164 32v133h555v-133q-78 -35 -211 -35h-2q-14 -184 -123 -342 q121 -109 279 -108q74 0 120 25l-28 -154q-68 -63 -207 -64q-201 0 -354 119q-182 -119 -430 -119zM713 143q141 0 258 62l-447 440l-18 17q-123 -92 -123 -242q0 -129 89 -203t241 -74zM555 1124q0 -113 109 -233q59 33 99 61.5t75.5 83t35.5 117.5q0 158 -157 158 q-162 -1 -162 -187z" />
<glyph unicode="'" horiz-adv-x="413" d="M137 1010q-57 211 -57 327v103h254v-103q0 -139 -58 -327h-139z" />
<glyph unicode="(" horiz-adv-x="735" d="M526 -256q-166 115 -280.5 332t-114.5 545q0 326 114.5 540.5t280.5 331.5l176 -47q-322 -272 -321 -825q0 -559 321 -832z" />
<glyph unicode=")" horiz-adv-x="735" d="M213 -256l-180 45q324 274 323 832q0 551 -323 825l180 47q164 -117 277.5 -332t113.5 -540q0 -328 -113.5 -545t-277.5 -332z" />
<glyph unicode="*" horiz-adv-x="927" d="M698 772q-31 16 -82 67.5t-88 94.5l-34 41l-5 2v-6q70 -199 70 -277q0 -49 -24.5 -82.5t-69.5 -33.5t-70.5 33.5t-25.5 82.5l69 277v6l-4 -2q-135 -164 -205 -203q-41 -25 -83 -18.5t-66 45.5q-20 41 -5 78.5t56 62.5q70 41 279 78l2 2l-2 2q-209 39 -279 78 q-41 25 -56.5 62.5t5.5 78.5q49 82 149 27q31 -16 82 -66.5t86 -91.5l37 -43h4v2q-70 199 -69 277q0 49 25.5 82.5t70.5 33.5t69.5 -33.5t24.5 -82.5l-70 -277v-2h5q137 162 204 201q100 55 150 -27q20 -41 5 -79t-56 -62q-70 -39 -279 -78l-4 -2l4 -2q209 -37 279 -78 q41 -25 56 -62.5t-5 -78.5q-25 -39 -67 -45.5t-83 18.5z" />
<glyph unicode="+" d="M150 623v194h368v400h197v-400h366v-194h-366v-400h-197v400h-368z" />
<glyph unicode="," horiz-adv-x="614" d="M225 -309l-96 51q72 43 118 111.5t46 123.5q-66 12 -108 54.5t-42 113.5q0 70 46.5 116t115.5 46q78 0 124 -52t46 -151q0 -150 -73 -262t-177 -151z" />
<glyph unicode="-" horiz-adv-x="751" d="M70 508v199h612v-199h-612z" />
<glyph unicode="." horiz-adv-x="614" d="M305 -16q-70 0 -118 45t-48 116.5t46 116.5t120 45t120 -45t46 -116.5t-45 -116.5t-121 -45z" />
<glyph unicode="/" horiz-adv-x="903" d="M215 -31l-152 76l625 1456l152 -76z" />
<glyph unicode="0" d="M616 -25q-260 0 -399 190.5t-139 555.5q0 342 145.5 538.5t392.5 196.5q264 0 400.5 -189.5t136.5 -545.5q0 -350 -141.5 -548t-395.5 -198zM616 164q244 0 244 557q0 272 -55 409.5t-189 137.5q-131 0 -187 -138.5t-56 -408.5t56 -413.5t187 -143.5z" />
<glyph unicode="1" d="M184 0v133q74 37 232 37h71v1022q-33 -33 -119.5 -58.5t-168.5 -13.5l-70 160q119 6 268.5 57.5t216.5 102.5h187v-1270h71q158 0 232 -37v-133h-920z" />
<glyph unicode="2" d="M45 0v104l401 418q133 139 198 250t65 242q0 121 -64.5 189.5t-185.5 68.5q-111 0 -207 -66q47 -10 81 -50t34 -89q0 -68 -40 -101.5t-103.5 -33.5t-102.5 42t-39 116q0 141 134 253.5t335 112.5q213 0 341 -112.5t128 -315.5q0 -96 -40 -187t-127 -184.5t-148.5 -146.5 l-182.5 -150l-151 -120h524q20 205 74 288h145v-528h-1069z" />
<glyph unicode="3" d="M549 -25q-197 4 -321 86t-124 222q0 74 41 122t100.5 48t97.5 -34t38 -97q0 -82 -92 -140q98 -41 200 -41q139 0 215 70t76 190q0 131 -86 187.5t-258 56.5h-22v164h22q147 0 224 71.5t77 186.5q0 106 -62.5 159.5t-175 53.5t-204.5 -53q45 -10 79 -51t34 -91 q0 -63 -38 -96t-96 -33q-61 0 -100 41t-39 113q0 141 129 243.5t336 102.5t329 -89t122 -267q0 -139 -92.5 -228.5t-221.5 -115.5q168 -23 262.5 -116t94.5 -253q0 -197 -162 -306.5t-383 -105.5z" />
<glyph unicode="4" d="M418 0v133q78 37 221 37v213h-586v106l658 951h223v-865h248l-35 -192h-213v-213q150 0 219 -37v-133h-735zM639 1092l-354 -517h354v517z" />
<glyph unicode="5" d="M539 -25q-188 0 -316.5 85t-128.5 231q0 72 40 121t99.5 49t97.5 -34t38 -97q0 -90 -93 -140q102 -53 211 -53q141 0 222.5 85t81.5 231q0 274 -318 274q-119 0 -240 -39h-26l31 752h786v-252h-602l-21 -311q88 23 193 22q233 0 370.5 -114.5t137.5 -327.5 q0 -221 -162.5 -351.5t-400.5 -130.5z" />
<glyph unicode="6" d="M643 -25q-530 0 -530 652q0 397 176 613t459 216q172 0 273 -81t101 -193q0 -80 -44 -131.5t-109 -51.5q-63 0 -101.5 35t-38.5 96q0 43 27 79t62 48q-45 27 -127 27q-164 0 -253 -134t-110 -415q37 76 123 122t201 46q190 0 299.5 -118.5t109.5 -323.5 q0 -211 -144.5 -348.5t-373.5 -137.5zM629 700q-135 0 -205 -104v-21q0 -432 213 -432q217 0 217 293q0 141 -57 202.5t-168 61.5z" />
<glyph unicode="7" d="M154 1188v252h993v-228q-258 -266 -393.5 -510.5t-135.5 -539.5q0 -84 21 -162h-330q-31 70 -30 170q0 141 56 289.5t152.5 279.5t203 241t229.5 208h-766z" />
<glyph unicode="8" d="M592 -25q-236 0 -368 96.5t-132 280.5q0 227 248 359q-211 125 -211 346q0 184 138.5 291.5t375.5 107.5q211 0 338 -95t127 -265q0 -113 -64.5 -203t-158.5 -141q256 -129 256 -365q0 -193 -152.5 -302.5t-396.5 -109.5zM584 606l-78 29q-164 -94 -164 -266 q0 -111 61.5 -168.5t178 -57.5t180 55.5t63.5 157.5q0 92 -59 148.5t-182 101.5zM438 1079q0 -92 58.5 -143t171.5 -96l41 -17q162 113 161 267q0 100 -57 149t-159.5 49t-159 -57.5t-56.5 -151.5z" />
<glyph unicode="9" d="M504 -25q-172 0 -273.5 81t-101.5 194q0 80 45 131t111 51q63 0 100 -35t37 -96q0 -43 -26.5 -79t-61.5 -48q49 -27 129 -27q164 0 250 135.5t102 419.5q-31 -82 -116 -128t-207 -46q-190 0 -301 120t-111 325q0 211 145.5 347t386.5 136q260 0 390.5 -168t130.5 -481 q0 -399 -172 -615.5t-457 -216.5zM616 731q141 0 203 103v22q0 432 -211 432q-106 0 -163.5 -73.5t-57.5 -219.5q0 -264 229 -264z" />
<glyph unicode=":" horiz-adv-x="614" d="M305 711q-70 0 -118 45t-48 116.5t46 116.5t120 45t120 -45t46 -116.5t-45 -116.5t-121 -45zM305 -16q-70 0 -118 45t-48 116.5t46 116.5t120 45t120 -45t46 -116.5t-45 -116.5t-121 -45z" />
<glyph unicode=";" horiz-adv-x="614" d="M305 711q-70 0 -118 45t-48 116.5t46 116.5t120 45t120 -45t46 -116.5t-45 -116.5t-121 -45zM225 -309l-96 51q72 43 118 111.5t46 123.5q-66 12 -108 54.5t-42 113.5q0 70 46.5 116t115.5 46q78 0 124 -52t46 -151q0 -150 -73 -262t-177 -151z" />
<glyph unicode="&#x3c;" d="M961 182l-811 449v180l811 446l98 -188l-651 -348l651 -350z" />
<glyph unicode="=" d="M150 817v199h931v-199h-931zM150 420v198h931v-198h-931z" />
<glyph unicode="&#x3e;" d="M272 182l-98 189l649 350l-649 348l98 188l809 -446v-180z" />
<glyph unicode="?" horiz-adv-x="972" d="M356 428q-45 25 -77.5 74t-32.5 102q0 51 24.5 96t50.5 69l85 75l77 65q59 51 84 98.5t25 121t-51.5 114.5t-141.5 41q-84 0 -127 -29q96 -31 97 -127q0 -57 -38 -92t-95 -35q-55 0 -93.5 39t-38.5 105q0 133 119 222t289 89q174 0 277.5 -86t103.5 -231 q0 -63 -20.5 -115.5t-68.5 -98.5t-85 -73t-111 -74l-65 -43q-117 -72 -117 -139q0 -61 74 -135zM408 -16q-74 0 -121 45t-47 116.5t46 116.5t122 45q74 0 119.5 -45t45.5 -116.5t-44.5 -116.5t-120.5 -45z" />
<glyph unicode="@" horiz-adv-x="2025" d="M848 -16q-150 0 -245 68.5t-95 207.5q0 299 473 299q102 0 186 -24l4 139q2 109 -54 161t-181 52q-100 0 -180 -47q41 -2 69.5 -28t28.5 -73q0 -55 -37 -86.5t-98 -31.5q-63 0 -103.5 35.5t-40.5 101.5q0 125 140.5 212t310.5 87q238 0 346.5 -101.5t104.5 -287.5 q-8 -305 -9 -394q0 -72 20.5 -98t70.5 -26q90 0 159.5 135t69.5 391q0 319 -193.5 484t-545.5 165q-354 0 -574.5 -214t-220.5 -585q0 -772 733 -772q207 0 338 64l-6 -117q-49 -41 -150.5 -67.5t-220.5 -26.5q-414 0 -654.5 244.5t-240.5 674.5q0 408 270.5 678.5 t725.5 270.5q430 0 683 -214t253 -585q0 -315 -145.5 -503.5t-377.5 -188.5q-217 0 -272 147q-41 -63 -129 -105t-213 -42zM971 176q125 0 192 60l2 176q-66 12 -118 12q-221 0 -222 -133q1 -115 146 -115z" />
<glyph unicode="A" horiz-adv-x="1644" d="M-8 0v135q59 29 192 33l500 1272h297l465 -1272q137 -4 199 -33v-135h-734v135q61 29 201 33l-82 231h-547l-86 -231h19q152 0 217 -33v-135h-641zM764 1147l-213 -572h418z" />
<glyph unicode="B" horiz-adv-x="1552" d="M72 0v133q74 37 221 37v1100q-17 -1 -33 -1q-113 0 -188 38v133h823q252 0 389 -81t137 -284q0 -127 -67.5 -208t-179.5 -115q117 -25 208 -111t91 -242q0 -197 -139.5 -298t-401.5 -101h-860zM1141 420q0 221 -269 221h-268v-453h260q133 0 205 58.5t72 173.5zM829 1251 h-225v-430h225q268 0 269 226q-1 204 -269 204z" />
<glyph unicode="C" horiz-adv-x="1433" d="M760 -25q-313 0 -500.5 184.5t-187.5 553.5q0 340 186 545.5t471 205.5q246 0 377 -141q39 106 80 141h125v-612h-146q-53 86 -75 309q-94 115 -279 115q-182 0 -291.5 -144.5t-109.5 -410.5q0 -268 107.5 -402.5t303.5 -134.5q154 0 261.5 95.5t168.5 240.5l86 -98 q-31 -188 -187.5 -317.5t-389.5 -129.5z" />
<glyph unicode="D" horiz-adv-x="1710" d="M72 0v133q74 37 221 37v1100q-17 -1 -33 -1q-113 0 -188 38v133h800q348 0 557 -172t209 -541q0 -367 -209.5 -547t-556.5 -180h-800zM838 1251h-234v-1063h234q221 0 341.5 139.5t120.5 399.5q0 258 -120.5 391t-341.5 133z" />
<glyph unicode="E" horiz-adv-x="1486" d="M72 0v133q74 37 213 37h8v1100q-17 -1 -33 -1q-113 0 -188 38v133h1298v-516h-147q-61 96 -80 327h-539v-458h242q10 113 53 190h139v-526h-139q-39 68 -51 182h-244v-451h557q6 86 28.5 189.5t51.5 150.5h150v-528h-1319z" />
<glyph unicode="F" horiz-adv-x="1425" d="M72 0v133q74 37 221 37v1100q-17 -1 -33 -1q-113 0 -188 38v133h1298v-516h-147q-61 96 -80 327h-539v-479h246q6 84 51 197h141v-537h-141q-39 92 -49 186h-248v-448h21q74 0 159.5 -11.5t114.5 -25.5v-133h-827z" />
<glyph unicode="G" horiz-adv-x="1609" d="M756 -25q-303 0 -493.5 188.5t-190.5 549.5q0 346 198.5 548.5t513.5 202.5q258 0 400 -141q33 96 80 141h125v-585h-146q-55 92 -76 280q-106 117 -305 117q-207 0 -329.5 -144.5t-122.5 -410.5q0 -262 112.5 -399.5t306.5 -137.5q182 0 308 121v191q-127 6 -181 36v136 h646v-136q-68 -35 -185 -36v-521h-192q-43 55 -70 154q-143 -154 -399 -154z" />
<glyph unicode="H" horiz-adv-x="1865" d="M72 0v133q74 37 221 37v1100q-147 0 -221 37v133h751v-133q-70 -37 -219 -37v-459h658v459q-150 0 -220 37v133h752v-133q-74 -37 -219 -37v-1100q145 0 219 -37v-133h-752v133q70 37 220 37v461h-658v-461q150 0 219 -37v-133h-751z" />
<glyph unicode="I" horiz-adv-x="894" d="M72 0v133q74 37 221 37v1100q-147 0 -221 37v133h751v-133q-70 -37 -219 -37v-1100q150 0 219 -37v-133h-751z" />
<glyph unicode="J" horiz-adv-x="1028" d="M426 1270q-166 0 -236 37v133h783v-133q-74 -37 -221 -37v-871q0 -231 -123 -351t-330 -120q-129 0 -218 57.5t-89 151.5q0 74 43 117t106 43q59 0 99.5 -41t40.5 -104q0 -57 -41 -103q90 0 145 86t55 252v883h-14z" />
<glyph unicode="K" horiz-adv-x="1724" d="M72 0v133q74 37 221 37v1100q-147 0 -221 37v133h751v-133q-70 -37 -219 -37v-535l610 535q-123 6 -174 37v133h623v-133q-63 -33 -195 -37l-489 -430l551 -672q117 -6 178 -35v-133h-715v133q57 29 170 35l-393 489l-166 -145v-342q129 -4 205 -37v-133h-737z" />
<glyph unicode="L" horiz-adv-x="1413" d="M72 0v133q74 37 213 37h8v1100q-147 0 -221 37v133h751v-133q-70 -37 -219 -37v-1082h551q6 86 27.5 188.5t52.5 151.5h147v-528h-1310z" />
<glyph unicode="M" horiz-adv-x="2166" d="M72 0v133q74 37 221 37v1100q-147 0 -221 37v133h571l447 -1014l428 1014h575v-133q-74 -37 -221 -37v-1100q147 0 221 -37v-133h-754v133q74 37 222 37v889l-455 -1075h-143l-463 1034v-848q147 0 221 -37v-133h-649z" />
<glyph unicode="N" horiz-adv-x="1753" d="M76 0v135q66 33 217 33v1104q-152 0 -217 33v135h528l672 -983v815q-154 0 -215 33v135h647v-135q-66 -33 -223 -33v-1288h-242l-743 1071v-887q160 0 225 -33v-135h-649z" />
<glyph unicode="O" horiz-adv-x="1615" d="M811 -25q-336 0 -537.5 193.5t-201.5 552.5q0 356 202.5 549.5t536.5 193.5q330 0 531.5 -193.5t201.5 -549.5q0 -358 -200.5 -552t-532.5 -194zM811 180q193 0 295 142.5t102 398.5t-102 397.5t-295 141.5q-195 0 -298 -141.5t-103 -397.5t103 -398.5t298 -142.5z" />
<glyph unicode="P" horiz-adv-x="1492" d="M72 0v133q74 37 221 37v1100q-17 -1 -33 -1q-113 0 -188 38v133h860q522 0 522 -430q0 -229 -173 -352t-454 -123q-131 0 -223 16v-381h25q74 0 157.5 -11.5t112.5 -25.5v-133h-827zM848 1251h-244v-530q68 -14 178 -14q172 0 260 77.5t88 212.5q1 254 -282 254z" />
<glyph unicode="Q" horiz-adv-x="1622" d="M1311 -449q-223 0 -307 218l-25 63q-16 43 -27.5 64.5t-38 46t-63.5 34.5q-8 0 -20.5 -1t-18.5 -1q-336 0 -537.5 193.5t-201.5 552.5q0 356 202.5 549.5t536.5 193.5q330 0 531.5 -193.5t201.5 -549.5q0 -287 -131 -470t-360 -245q133 -6 202 -129l31 -47 q47 -90 137 -90q70 0 127 29l-24 -150q-88 -68 -215 -68zM811 180q193 0 295 142.5t102 398.5t-102 397.5t-295 141.5q-195 0 -298 -141.5t-103 -397.5t103 -398.5t298 -142.5z" />
<glyph unicode="R" horiz-adv-x="1605" d="M72 0v133q74 37 221 37v1100q-17 -1 -33 -1q-113 0 -188 38v133h809q260 0 400 -94.5t140 -311.5q0 -154 -88 -257t-243 -144q94 -18 164.5 -82t70.5 -195v-49q0 -72 29.5 -105.5t97.5 -33.5q74 0 123 25l-31 -156q-63 -70 -221 -70q-137 0 -220 78t-83 248v78 q0 117 -49 173t-162 62h-205v-436h17q160 0 233 -37v-133h-782zM819 1251h-215v-487h209q135 0 210 67.5t75 194.5q0 225 -279 225z" />
<glyph unicode="S" horiz-adv-x="1341" d="M127 -16l-14 585h125q35 -55 65.5 -142t40.5 -157q115 -115 307 -114q123 0 197 53t74 147q0 90 -60.5 139.5t-191.5 86.5l-170 49q-371 98 -371 411q0 188 134 305t343 117q225 0 340 -135q31 98 76 135h125v-559h-135q-70 106 -82 293q-90 90 -238 90q-111 0 -176 -52 t-65 -144q0 -98 58 -147.5t181 -82.5l166 -49q186 -53 287.5 -147.5t101.5 -266.5q0 -203 -150.5 -313.5t-359.5 -110.5q-270 0 -405 146q-35 -90 -92 -137h-111z" />
<glyph unicode="T" horiz-adv-x="1478" d="M33 924v516h1413v-516h-148q-35 53 -57 170.5t-22 195.5h-322v-1120h6q145 0 223 -37v-133h-768v133q70 37 220 37h8v1120h-326q-2 -78 -25.5 -195.5t-54.5 -170.5h-147z" />
<glyph unicode="U" horiz-adv-x="1753" d="M899 -25q-332 0 -477.5 144.5t-145.5 406.5v744q-147 0 -221 37v133h754v-133q-74 -37 -221 -37v-756q0 -180 85 -263t251 -83t251 101.5t85 281.5v719q-145 0 -220 37v133h658v-133q-70 -37 -219 -37v-723q0 -252 -149.5 -412t-430.5 -160z" />
<glyph unicode="V" horiz-adv-x="1654" d="M1223 1270q-147 0 -222 37v133h646v-133q-68 -33 -193 -37l-498 -1286h-290l-469 1286q-125 4 -189 37v133h735v-133q-59 -33 -200 -37l344 -959l356 959h-20z" />
<glyph unicode="W" horiz-adv-x="2459" d="M2023 1270q-150 0 -219 37v133h647v-133q-63 -33 -190 -37l-465 -1286h-287l-295 929l-309 -929h-284l-426 1286q-123 4 -187 37v133h742v-133q-70 -37 -211 -37l295 -926l370 1112h172l346 -1112l328 926h-27z" />
<glyph unicode="X" horiz-adv-x="1691" d="M20 0v137q57 29 179 35l479 506l-469 592q-129 4 -193 37v133h779v-133q-68 -35 -189 -37l289 -363l334 363q-139 4 -203 37v133h641v-133q-53 -31 -174 -37l-481 -510l469 -586q127 -4 194 -37v-137h-774v137q61 29 176 35l-280 356l-324 -354q135 -6 193 -37v-137h-646 z" />
<glyph unicode="Y" horiz-adv-x="1622" d="M451 0v137q70 37 227 37v365l-494 731q-125 4 -192 37v133h749v-133q-72 -33 -198 -37l354 -525l356 525q-143 4 -202 37v133h587v-133q-57 -31 -174 -37l-475 -701v-395q152 0 230 -37v-137h-768z" />
<glyph unicode="Z" horiz-adv-x="1419" d="M88 0v129l842 1153h-588q-4 -80 -27.5 -192.5t-54.5 -165.5h-145v516h1200v-125l-846 -1157h635q2 80 25.5 198.5t56.5 171.5h145v-528h-1243z" />
<glyph unicode="[" horiz-adv-x="641" d="M111 -256v1759h493v-196h-252v-1364h252v-199h-493z" />
<glyph unicode="\" horiz-adv-x="903" d="M688 -31l-625 1456l152 76l625 -1456z" />
<glyph unicode="]" horiz-adv-x="641" d="M39 -256v199h252v1364h-252v196h496v-1759h-496z" />
<glyph unicode="^" horiz-adv-x="1112" d="M223 516l-186 94l426 830h178l426 -830l-188 -94l-326 666z" />
<glyph unicode="_" horiz-adv-x="999" d="M33 -287v201h936v-201h-936z" />
<glyph unicode="`" horiz-adv-x="1228" d="M729 1155l-295 172q-88 49 -88 131q0 45 32 73t83 28q63 0 141 -91l213 -264z" />
<glyph unicode="a" horiz-adv-x="1261" d="M403 -16q-150 0 -245 68.5t-95 207.5q0 299 474 299q100 0 188 -24l2 139q2 109 -54.5 161t-180.5 52q-100 0 -181 -47q43 -2 72 -28t29 -73q0 -55 -37 -86.5t-100.5 -31.5t-103.5 35.5t-40 101.5q0 125 140.5 212t310.5 87q238 0 346 -102q105 -98 104 -274v-13 q-8 -270 -8 -359q0 -70 24.5 -95.5t79.5 -25.5q72 0 127 33l-18 -139q-68 -98 -236 -98q-199 0 -256 149q-41 -66 -128 -107.5t-214 -41.5zM526 176q123 0 195 60l2 176q-70 12 -121 12q-219 0 -219 -133q0 -115 143 -115z" />
<glyph unicode="b" horiz-adv-x="1302" d="M748 -16q-106 0 -184.5 38.5t-110.5 104.5q-45 -123 -140 -164l-168 45q33 90 33 316v1036q-26 -6 -63 -7q-23 0 -49 3q-72 6 -109 20v133q106 43 299 43q150 0 225 -20v-670q35 80 121 129t215 49q193 0 308.5 -134t115.5 -363q0 -266 -133 -412.5t-360 -146.5zM481 291 q0 -8 -1 -20.5t-1 -20.5q78 -82 180 -82q127 0 196 93t69 263q0 154 -64.5 229.5t-171.5 75.5q-135 0 -207 -96v-442z" />
<glyph unicode="c" horiz-adv-x="1073" d="M606 -16q-242 0 -394.5 131t-152.5 389q0 254 157 395t405 141q186 0 302.5 -91t116.5 -222q0 -72 -43 -116t-106.5 -44t-104.5 35t-41 96q0 47 35 83t80 46q-76 49 -186 50q-143 0 -220 -94.5t-77 -256.5q0 -168 83 -249.5t224 -81.5q199 0 315 149l48 -80 q-23 -106 -138 -193t-303 -87z" />
<glyph unicode="d" horiz-adv-x="1351" d="M496 -16q-205 0 -321 134t-116 363q0 260 142.5 409.5t365.5 149.5q172 0 252 -94v414q-26 -6 -63 -7q-23 0 -49 3q-72 6 -107 20v133q102 43 297 43q150 0 227 -20v-1339q26 6 63 6q22 0 49 -2q71 -6 105 -21v-133q-98 -43 -297 -43q-147 0 -225 20v146 q-75 -182 -323 -182zM819 276v523q-68 57 -176 57q-123 0 -194.5 -97t-71.5 -259q0 -154 65.5 -229.5t175.5 -75.5q142 -1 201 81z" />
<glyph unicode="e" horiz-adv-x="1171" d="M625 -16q-254 0 -410 129t-156 391q0 246 155 391t404 145q213 0 339 -100t126 -260q0 -121 -30 -201h-676q12 -285 321 -284q104 0 191.5 42t138.5 107l45 -80q-20 -102 -141 -191t-307 -89zM621 850q-201 0 -238 -232h428v41q0 74 -46 132.5t-144 58.5z" />
<glyph unicode="f" horiz-adv-x="849" d="M63 821v137q68 41 181 58v37q0 254 129 376.5t338 122.5q137 0 225 -64.5t88 -158.5q0 -70 -42 -111.5t-99 -41.5q-66 0 -105 32.5t-39 96.5q0 39 26 72.5t52 37.5q-25 4 -35 4q-233 0 -233 -362v-49h270v-187h-270v-657h4q174 0 248 -37v-127h-752v127q76 35 195 37v657 h-181z" />
<glyph unicode="g" horiz-adv-x="1185" d="M537 -442q-510 0 -510 241q0 90 64.5 137.5t162.5 51.5q-127 51 -127 176q0 78 62.5 128t148.5 60q-242 84 -242 330q0 127 68.5 211t168 117.5t224.5 33.5q150 0 256 -49q-8 29 -8 54q2 80 52 130t134 50q59 0 100.5 -33t41.5 -86q0 -55 -31 -89t-82 -34q-76 0 -105 64 q-16 -10 -10 -55.5t35 -90.5q80 -86 80 -223q0 -186 -133 -274.5t-330 -88.5q-53 0 -98 7q-82 -20 -82 -76q0 -37 29.5 -51.5t99.5 -14.5h276q164 0 256 -65.5t92 -200.5q0 -164 -163.5 -262t-429.5 -98zM483 -47q-49 0 -127 8q-82 -25 -82 -108q0 -68 77 -103t204 -35 q143 0 226 41t83 111q0 86 -139 86h-242zM557 479q88 0 133 56.5t45 146.5t-46 146.5t-132 56.5q-84 0 -130 -56.5t-46 -146.5t46 -146.5t130 -56.5z" />
<glyph unicode="h" horiz-adv-x="1402" d="M18 0v127q68 35 195 37v1196q-27 -6 -65 -7q-23 0 -49 3q-71 6 -107 20v133q102 43 299 43q147 0 225 -20v-694q61 203 322 202q375 0 374 -448v-428q123 -2 195 -37v-127h-659v127q57 29 159 35v430q0 123 -46 180t-146 57q-63 0 -117.5 -30.5t-81.5 -73.5v-563 q98 -6 160 -35v-127h-658z" />
<glyph unicode="i" horiz-adv-x="770" d="M55 0v127q76 35 195 37v667q-26 -6 -63 -6q-22 0 -49 2q-71 6 -105 21v133q98 43 297 43q147 0 225 -20v-840q125 -2 193 -37v-127h-693zM379 1198q-80 0 -133 40t-53 113.5t53 113.5t133 40q82 0 133 -40t51 -113q0 -76 -52 -115t-132 -39z" />
<glyph unicode="j" horiz-adv-x="737" d="M133 -449q-123 0 -210 51.5t-87 143.5q0 74 41 115t98 41q61 0 99.5 -34t38.5 -95q0 -63 -39 -103q166 23 166 289v872q-26 -6 -63 -6q-22 0 -49 2q-71 6 -105 21v133q96 43 296 43q147 0 226 -20v-1004q0 -221 -111 -335t-301 -114zM369 1198q-80 0 -133.5 40 t-53.5 113.5t53.5 113.5t133.5 40q82 0 134 -40t52 -113.5t-53 -113.5t-133 -40z" />
<glyph unicode="k" horiz-adv-x="1398" d="M18 0v127q68 35 195 37v1196q-27 -6 -65 -7q-23 0 -49 3q-71 6 -107 20v133q96 43 299 43q147 0 225 -20v-1024l395 336q-94 8 -151 39v125h614v-125q-74 -39 -209 -39l-295 -252l365 -430q98 -6 164 -35v-127h-637v127q51 25 141 33l-225 270l-162 -135v-133 q96 -6 150 -35v-127h-648z" />
<glyph unicode="l" horiz-adv-x="753" d="M18 0v127q72 35 195 37v1196q-27 -6 -65 -7q-23 0 -49 3q-71 6 -107 20v133q96 43 301 43q145 0 223 -20v-1368q119 -2 195 -37v-127h-693z" />
<glyph unicode="m" horiz-adv-x="2105" d="M55 0v127q76 35 195 37v667q-26 -6 -63 -6q-22 0 -49 2q-71 6 -105 21v133q98 43 297 43q147 0 225 -20v-164q63 201 315 200.5t328 -209.5q37 96 127 152.5t219 56.5q371 0 371 -448v-428q117 -6 178 -37v-127h-633v127q59 29 150 35v430q0 123 -44 180t-147 57 q-59 0 -112.5 -29.5t-79.5 -70.5q10 -72 10 -137v-430q88 -6 149 -35v-127h-604v127q59 29 150 35v430q0 123 -44 180t-145 57q-59 0 -109 -30.5t-79 -73.5v-563q90 -6 150 -35v-127h-650z" />
<glyph unicode="n" horiz-adv-x="1443" d="M55 0v127q76 35 195 37v667q-26 -6 -63 -6q-22 0 -49 2q-71 6 -105 21v133q98 43 297 43q147 0 225 -20v-164q66 201 324 200q373 0 372 -448v-428q119 -6 181 -37v-127h-646v127q57 29 162 35v430q0 123 -46 180t-150 57q-61 0 -114.5 -30.5t-82.5 -73.5v-563 q100 -6 162 -35v-127h-662z" />
<glyph unicode="o" horiz-adv-x="1228" d="M614 -16q-252 0 -403.5 128t-151.5 400q0 258 155 393t400.5 135t399 -134t153.5 -394q0 -258 -152.5 -393t-400.5 -135zM614 182q113 0 175.5 83t62.5 247q0 160 -62.5 245t-175 85t-175 -84t-62.5 -246q-1 -330 237 -330z" />
<glyph unicode="p" horiz-adv-x="1325" d="M8 -449v127q57 33 195 37v1116q-27 -6 -64 -6q-22 0 -49 2q-70 6 -106 21v133q98 43 299 43q147 0 223 -20v-158q29 88 111.5 141t220.5 53q193 0 310.5 -134t117.5 -363q0 -266 -134.5 -412.5t-361.5 -146.5q-205 0 -264 102v-371h8q178 0 246 -37v-127h-752zM713 829 q-139 0 -207 -100v-496q70 -66 180 -65q127 0 195.5 93t68.5 263q0 154 -64 229.5t-173 75.5z" />
<glyph unicode="q" horiz-adv-x="1292" d="M584 -449v127q68 37 231 37h4v451q-76 -182 -330 -182q-201 0 -315.5 137t-114.5 362q0 258 143.5 407.5t364.5 149.5q215 0 283 -114q35 92 108 139l197 -39q-31 -88 -31 -313v-998q127 0 195 -37v-127h-735zM618 195q141 0 201 81v457q0 43 2 64q-66 59 -178 59 q-123 0 -194.5 -94t-71.5 -258q0 -154 67.5 -231.5t173.5 -77.5z" />
<glyph unicode="r" horiz-adv-x="1044" d="M55 0v127q76 35 195 37v667q-26 -6 -63 -6q-22 0 -49 2q-71 6 -105 21v133q98 43 297 43q147 0 225 -20v-216q37 104 113.5 173t189.5 69q80 0 131 -46t51 -118q0 -78 -42 -125t-107 -47q-68 0 -109 42q-34 35 -34 89q0 11 2 23q-59 -12 -118 -73.5t-77 -139.5v-471h2 q174 0 252 -37v-127h-754z" />
<glyph unicode="s" horiz-adv-x="1097" d="M123 -16l-4 413h125q35 -57 55 -159q90 -96 252 -97q88 0 134 34t46 93q0 55 -42 80t-132 45l-123 29q-154 35 -229.5 106.5t-75.5 192.5q0 143 109.5 233t273.5 90q172 0 264 -81q23 80 62 104l112 -10l-8 -393h-123q-45 106 -51 170q-72 51 -180 51q-78 0 -120 -34 t-42 -91q0 -59 45 -86t135 -45l103 -23q158 -37 240.5 -108.5t82.5 -198.5q0 -147 -113.5 -233t-293.5 -86q-219 0 -326 110q-10 -61 -51 -106h-125z" />
<glyph unicode="t" horiz-adv-x="917" d="M16 821v137q55 37 177 56q0 203 57 301l246 28v-335h315v-187h-315v-471q0 -82 33.5 -121t111.5 -39q117 0 215 113l33 -102q-29 -88 -119 -152.5t-221 -64.5q-356 0 -356 350v487h-177z" />
<glyph unicode="u" horiz-adv-x="1431" d="M557 -16q-367 0 -367 448v399q-27 -6 -63 -6q-22 0 -47 2q-68 6 -105 21v133q98 43 293 43q150 0 226 -20v-568q0 -129 46 -185t148 -56q127 0 199 94v542q-27 -6 -64 -6q-22 0 -47 2q-68 6 -104 21v133q96 43 299 43q143 0 219 -20v-820q26 6 63 7q23 0 50 -3 q72 -6 106 -22v-133q-96 -43 -297 -43q-154 0 -225 22v166q-80 -194 -330 -194z" />
<glyph unicode="v" horiz-adv-x="1130" d="M449 -16l-371 864q-78 8 -125 33v127h598v-127q-68 -31 -158 -37l223 -535l215 535q-106 2 -174 37v127h496v-127q-45 -25 -133 -35l-379 -862h-192z" />
<glyph unicode="w" horiz-adv-x="1744" d="M424 -16l-346 864q-80 10 -125 35v125h598v-125q-57 -31 -154 -39l197 -522l256 692h147l246 -690l201 520q-111 2 -180 39v125h495v-125q-45 -25 -129 -35l-358 -864h-203l-213 596l-233 -596h-199z" />
<glyph unicode="x" horiz-adv-x="1302" d="M37 0v121q57 27 153 33l316 315l-326 375q-100 6 -160 39v125h648v-125q-49 -29 -129 -37l159 -180l185 190q-76 8 -123 33v119h483v-119q-55 -27 -151 -37l-297 -297l346 -393q94 -6 155 -35v-127h-653v127q47 25 133 33l-174 200l-199 -210q63 -8 117 -29v-121h-483z " />
<glyph unicode="y" horiz-adv-x="1134" d="M449 -2l-369 850q-82 8 -127 35v125h598v-125q-57 -31 -156 -39l221 -527l215 527q-109 2 -174 39v125h496v-125q-49 -29 -133 -37l-434 -989q-66 -152 -149 -229t-204 -77q-113 0 -178 52.5t-65 142.5q0 63 41 102t102 39q59 0 100 -29.5t41 -93.5q0 -70 -43 -108 q106 2 189 197l61 145h-32z" />
<glyph unicode="z" horiz-adv-x="1140" d="M80 0v133l602 729h-367q-4 -57 -24.5 -139t-42.5 -121h-148v406h951v-129l-600 -734h385q6 66 30.5 151t53.5 134h139v-430h-979z" />
<glyph unicode="{" horiz-adv-x="890" d="M653 -256q-156 0 -262 92t-94 254l14 225q8 104 -52 172t-202 68v154q143 0 202.5 66.5t51.5 172.5l-14 203q-14 168 88 260t268 92q92 0 152 -24l22 -156q-51 10 -110 10q-190 0 -174 -192l14 -203q10 -131 -70.5 -214t-214.5 -91q133 -10 214 -92t71 -215l-14 -228 q-6 -86 42 -135t132 -49q66 0 110 12l-22 -155q-66 -27 -152 -27z" />
<glyph unicode="|" horiz-adv-x="606" d="M207 -449v2048h192v-2048h-192z" />
<glyph unicode="}" horiz-adv-x="890" d="M236 -256q-86 0 -148 27l-27 155q49 -12 113 -12q84 0 132 49t42 135l-16 228q-10 133 71.5 215t214.5 92q-133 8 -214.5 91t-71.5 214l16 203q16 193 -174 192q-57 0 -113 -10l27 156q55 25 148 24q168 0 270 -91t88 -261l-16 -203q-8 -106 52 -172.5t201 -66.5v-154 q-141 0 -200.5 -66.5t-52.5 -173.5l16 -225q12 -162 -95 -254t-263 -92z" />
<glyph unicode="~" d="M129 543v219q92 135 231 135q90 0 264.5 -80t256.5 -80q57 0 112.5 40t83.5 79l27 41v-219q-100 -135 -232 -135q-90 0 -264 79.5t-256 79.5q-37 0 -72.5 -16t-61 -39.5t-47 -47.5t-32.5 -40z" />
<glyph unicode="&#xa1;" horiz-adv-x="614" d="M305 725q-74 0 -120 45t-46 117q0 70 48.5 116t117.5 46q74 0 120 -45.5t46 -117t-46 -116.5t-120 -45zM154 -408v353q0 143 20.5 343.5t40.5 266.5h182q23 -66 43.5 -266.5t20.5 -343.5v-353h-307z" />
<glyph unicode="&#xa2;" d="M653 -193v168q-272 4 -422.5 190.5t-150.5 551.5q0 336 153.5 541.5t415.5 205.5h4v135h80v-141q145 -27 236 -129q29 96 78 135h118v-612h-139q-63 100 -78 330q-84 92 -215 94v-1092q240 8 359 314l86 -86q-33 -170 -148 -291t-297 -141v-173h-80zM393 721 q0 -244 62.5 -375t197.5 -156v1078q-129 -31 -194.5 -174.5t-65.5 -372.5z" />
<glyph unicode="&#xa3;" d="M106 621v163h220l10 140q16 264 153.5 398t344.5 134q166 0 267 -90t101 -205q0 -72 -37 -114.5t-96 -42.5q-51 0 -84 29.5t-33 82.5q0 49 28 84t58 45q-70 43 -145 43q-225 0 -250 -364l-8 -140h340v-163h-350l-9 -129q-12 -172 -120 -281q41 -6 118.5 -19.5t144 -20.5 t136.5 -7q174 0 307 80l-33 -211q-29 -31 -102.5 -59.5t-171.5 -28.5q-109 0 -313.5 27.5t-278.5 27.5q-53 0 -109.5 -4t-87.5 -8l-28 -4v168q68 41 170 59q47 88 59 281l8 129h-209z" />
<glyph unicode="&#xa4;" d="M610 315q-131 0 -221 60l-98 -101l-113 111l103 102q-59 96 -60 226q0 127 60 223l-103 102l113 113l98 -100q96 57 221 57q131 0 226 -61l106 104l113 -113l-111 -110q53 -86 53 -215q0 -131 -53 -219l111 -109l-113 -111l-106 105q-93 -64 -226 -64zM610 479 q96 0 150.5 63.5t54.5 170.5q0 104 -54 168.5t-151 64.5q-98 0 -152.5 -64.5t-54.5 -168.5q0 -106 54.5 -170t152.5 -64z" />
<glyph unicode="&#xa5;" d="M238 559v105h223l-334 608q-102 6 -160 35v133h637v-133q-55 -27 -143 -35l231 -441l240 441q-104 10 -152 35v133h484v-133q-47 -25 -142 -35l-336 -608h242v-105h-244v-135h244v-105h-244v-145q158 0 228 -37v-137h-758v137q74 37 225 37v145h-241v105h241v135h-241z " />
<glyph unicode="&#xa6;" horiz-adv-x="606" d="M207 831v768h192v-768h-192zM207 -449v768h192v-768h-192z" />
<glyph unicode="&#xa7;" horiz-adv-x="1361" d="M150 -449l-17 551h131q98 -160 107 -286q98 -84 229 -84q102 0 155.5 47t53.5 127q0 74 -48 114.5t-161 83.5l-143 52q-178 66 -260 142.5t-82 213.5q0 109 62.5 186.5t162.5 116.5q-123 102 -123 262q0 172 121 279.5t319 107.5q197 0 310 -127q25 88 71 127h129v-520 h-139q-70 111 -80 258q-86 82 -213 82q-92 0 -144 -49t-52 -129q0 -74 45 -116t153 -81l150 -53q182 -63 269 -147t87 -232q0 -109 -68.5 -184.5t-164.5 -104.5q123 -100 123 -258q0 -172 -120 -275.5t-327 -103.5q-225 0 -338 130q-35 -84 -88 -130h-110zM606 682 q-53 18 -96 39q-80 -59 -80 -162q0 -66 40 -103.5t126 -70.5l139 -55l107 -43q86 66 86 166q0 68 -44 105.5t-134 72.5z" />
<glyph unicode="&#xa8;" horiz-adv-x="1228" d="M845.5 1196q-59.5 0 -98 41t-38.5 106q0 68 38.5 109t98 41t100.5 -42t41 -107.5t-41 -106.5t-100.5 -41zM383 1196q-59 0 -99 41t-40 106.5t40 107.5t99 42q61 0 101 -41t40 -109q0 -66 -40 -106.5t-101 -40.5z" />
<glyph unicode="&#xa9;" horiz-adv-x="1984" d="M96 721q0 197 76 345t205 235.5t283.5 129.5t330.5 42t332 -42t285 -129.5t204.5 -235.5t75.5 -345t-75.5 -346.5t-204.5 -236.5t-285 -129t-332 -42t-330.5 42t-283.5 129t-205 236.5t-76 346.5zM240 721q0 -170 64.5 -298t174 -200.5t238.5 -107.5t274 -35 q147 0 276.5 35t240 107.5t174 200.5t63.5 298q0 137 -43 246.5t-114.5 182.5t-170 121t-204 68.5t-222.5 20.5q-145 0 -274 -35t-238.5 -106.5t-174 -199.5t-64.5 -298zM1296 768q-18 23 -35.5 76t-21.5 92q-80 55 -207 55q-137 0 -217 -65.5t-80 -198.5q0 -139 78 -200.5 t236 -61.5q229 0 352 151l47 -104q-98 -215 -465 -215q-254 0 -390 107.5t-136 316.5q0 193 136 304.5t376 111.5q195 0 291 -80q20 53 45 80h118v-369h-127z" />
<glyph unicode="&#xaa;" horiz-adv-x="886" d="M293 766q-106 0 -170 47t-64 141q0 199 324 199q88 0 139 -10l2 84q0 76 -40 108.5t-132 32.5q-78 0 -131 -35h2q25 -4 42.5 -23.5t17.5 -41.5q0 -35 -23.5 -57.5t-62.5 -22.5q-43 0 -69 24.5t-26 65.5q0 88 95.5 146.5t218.5 58.5q156 0 232.5 -70t78.5 -192 q-4 -172 -4 -232q0 -51 19.5 -69.5t68.5 -18.5q33 0 72 14l-17 -94q-63 -55 -155 -55q-131 0 -172 104q-37 -43 -103.5 -73.5t-142.5 -30.5zM377 897q92 0 139 39l2 119q-41 8 -100 8q-156 0 -156 -88q0 -78 115 -78z" />
<glyph unicode="&#xab;" horiz-adv-x="1277" d="M1044 190l-448 338v97l448 338l148 -70l-326 -318l326 -315zM477 190l-444 338v97l444 338l152 -70l-328 -318l328 -315z" />
<glyph unicode="&#xac;" d="M150 623v194h931v-594h-196v400h-735z" />
<glyph unicode="&#xad;" horiz-adv-x="751" d="M70 508v199h612v-199h-612z" />
<glyph unicode="&#xae;" horiz-adv-x="1984" d="M96 721q0 197 76 345t205 235.5t283.5 129.5t330.5 42t332 -42t285 -129.5t204.5 -235.5t75.5 -345t-75.5 -346.5t-204.5 -236.5t-285 -129t-332 -42t-330.5 42t-283.5 129t-205 236.5t-76 346.5zM240 721q0 -170 64.5 -298t174 -200.5t238.5 -107.5t274 -35 q147 0 276.5 35t240 107.5t174 200.5t63.5 298q0 137 -43 246.5t-114.5 182.5t-170 121t-204 68.5t-222.5 20.5q-145 0 -274 -35t-238.5 -106.5t-174 -199.5t-64.5 -298zM479 319v113q57 20 168 25v520q-98 4 -143 31v112h575q344 0 344 -239q0 -158 -151 -222 q96 -18 104 -114v-25q6 -72 88 -71q18 0 64 16l-17 -137q-51 -31 -151 -31q-231 0 -232 190v33q0 53 -27.5 78t-94.5 27h-111v-170q96 -4 137 -23v-113h-553zM1057 961h-162v-218h154q127 0 127 113q0 105 -119 105z" />
<glyph unicode="&#xaf;" horiz-adv-x="1228" d="M272 1184v180h656v-180h-656z" />
<glyph unicode="&#xb0;" horiz-adv-x="608" d="M303 967q-111 0 -189.5 70.5t-78.5 173t79 174t189.5 71.5t190 -70.5t79.5 -175.5q0 -102 -78.5 -172.5t-191.5 -70.5zM303.5 1073q65.5 0 105.5 38t40 99q0 59 -40 97.5t-105.5 38.5t-104.5 -37t-39 -98.5t39 -99.5t104.5 -38z" />
<glyph unicode="&#xb1;" d="M150 623v194h368v400h197v-400h366v-194h-366v-400h-197v400h-368zM150 -197v197h931v-197h-931z" />
<glyph unicode="&#xb2;" d="M45 0v104l401 418q133 139 198 250t65 242q0 121 -64.5 189.5t-185.5 68.5q-111 0 -207 -66q47 -10 81 -50t34 -89q0 -68 -40 -101.5t-103.5 -33.5t-102.5 42t-39 116q0 141 134 253.5t335 112.5q213 0 341 -112.5t128 -315.5q0 -96 -40 -187t-127 -184.5t-148.5 -146.5 l-182.5 -150l-151 -120h524q20 205 74 288h145v-528h-1069z" />
<glyph unicode="&#xb3;" d="M549 -25q-197 4 -321 86t-124 222q0 74 41 122t100.5 48t97.5 -34t38 -97q0 -82 -92 -140q98 -41 200 -41q139 0 215 70t76 190q0 131 -86 187.5t-258 56.5h-22v164h22q147 0 224 71.5t77 186.5q0 106 -62.5 159.5t-175 53.5t-204.5 -53q45 -10 79 -51t34 -91 q0 -63 -38 -96t-96 -33q-61 0 -100 41t-39 113q0 141 129 243.5t336 102.5t329 -89t122 -267q0 -139 -92.5 -228.5t-221.5 -115.5q168 -23 262.5 -116t94.5 -253q0 -197 -162 -306.5t-383 -105.5z" />
<glyph unicode="&#xb4;" horiz-adv-x="1228" d="M504 1155l-86 49l215 264q74 90 143 91q49 0 81 -28t32 -73q0 -80 -88 -131z" />
<glyph unicode="&#xb5;" horiz-adv-x="1431" d="M156 -449l34 326v954q-43 -10 -110.5 -3.5t-104.5 20.5v133q98 43 293 43q150 0 226 -20v-568q0 -129 46 -185t148 -56q127 0 199 94v542q-43 -10 -110.5 -3.5t-104.5 20.5v133q96 43 299 43q143 0 219 -20v-820q41 10 112.5 4t106.5 -22v-133q-96 -43 -297 -43 q-154 0 -225 22v166q-80 -195 -330 -194q-41 0 -74 6v-439h-327z" />
<glyph unicode="&#xb6;" horiz-adv-x="1509" d="M633 -449v738h-41q-240 0 -399.5 146.5t-159.5 428.5q0 188 84 321.5t213 194t286 60.5h857v-140q-78 -37 -220 -36v-1713h-286v1713h-158v-1713h-176z" />
<glyph unicode="&#xb7;" horiz-adv-x="614" d="M305 446q-70 0 -118 45.5t-48 117t46 116.5t120 45q76 0 121 -45t45 -116.5t-45 -117t-121 -45.5z" />
<glyph unicode="&#xb8;" horiz-adv-x="1228" d="M547 -449q-90 0 -156 33l-14 119q78 -23 133 -22q94 0 94 65q0 43 -34.5 66.5t-98.5 40.5v16l104 131h105l-66 -82q80 -18 122 -65.5t42 -110.5q0 -86 -61 -138.5t-170 -52.5z" />
<glyph unicode="&#xb9;" d="M184 0v133q74 37 232 37h71v1022q-33 -33 -119.5 -58.5t-168.5 -13.5l-70 160q119 6 268.5 57.5t216.5 102.5h187v-1270h71q158 0 232 -37v-133h-920z" />
<glyph unicode="&#xba;" horiz-adv-x="864" d="M438 766q-174 0 -282.5 89t-108.5 269q0 170 109.5 261.5t281.5 91.5q168 0 278.5 -90.5t110.5 -262.5q0 -168 -108.5 -263t-280.5 -95zM438 901q168 0 168 223.5t-168 223.5q-172 0 -172 -223.5t172 -223.5z" />
<glyph unicode="&#xbb;" horiz-adv-x="1277" d="M799 190l-150 70l328 315l-328 318l150 70l446 -338v-97zM233 190l-147 70l324 315l-324 318l147 70l447 -338v-97z" />
<glyph unicode="&#xbc;" horiz-adv-x="2111" d="M1186 223v74l452 496h207v-451h176l-20 -119h-156v-94q121 0 164 -20v-109h-584v109q47 20 164 20v94h-403zM219 647v115q51 23 162 22h35v461q-25 -16 -84.5 -28.5t-116.5 -6.5l-57 146q86 0 200.5 27.5t163.5 56.5h172v-656h19q113 0 168 -22v-115h-662zM795 -16 l-117 59l784 1446l117 -59zM1589 584l-221 -242h221v242z" />
<glyph unicode="&#xbd;" horiz-adv-x="2111" d="M1206 0v66l271 229l100 85q27 24 55.5 69t28.5 90q0 123 -164 123q-55 0 -129 -27q37 -2 63.5 -25.5t26.5 -54.5q0 -88 -117 -88q-51 0 -80.5 27.5t-29.5 78.5q0 88 104.5 158t274.5 70q145 0 236 -62.5t91 -177.5q0 -57 -30.5 -109.5t-95 -100.5t-112.5 -75.5 t-136 -72.5l-78 -43h346q16 123 55 170h117v-330h-797zM219 647v115q51 23 162 22h35v461q-25 -16 -84.5 -28.5t-116.5 -6.5l-57 146q86 0 200.5 27.5t163.5 56.5h172v-656h19q113 0 168 -22v-115h-662zM770 -16l-117 59l785 1446l116 -59z" />
<glyph unicode="&#xbe;" horiz-adv-x="2111" d="M1186 223v74l452 496h207v-451h176l-20 -119h-156v-94q121 0 164 -20v-109h-584v109q47 20 164 20v94h-403zM133 825q0 49 32 78t83 29q43 0 72.5 -19.5t29.5 -56.5q0 -59 -69 -80q70 -18 135 -18q88 0 135 33.5t47 87.5q0 106 -203 106h-30v115h34q88 0 130 31.5t42 81 t-42 77t-115.5 27.5t-134.5 -27q39 -2 64.5 -25.5t25.5 -54.5q0 -39 -30 -59.5t-77 -20.5q-109 0 -108 103q0 84 97 149.5t257 65.5q342 0 342 -199q0 -74 -66.5 -122t-160.5 -62q260 -27 260 -201q0 -106 -117 -168.5t-283 -62.5q-156 2 -253 55t-97 137zM786 -16l-116 59 l784 1446l117 -59zM1589 584l-221 -242h221v242z" />
<glyph unicode="&#xbf;" horiz-adv-x="972" d="M563 725q-74 0 -120 45t-46 116.5t46 117t120 45.5q72 0 119 -46.5t47 -115.5q0 -72 -46 -117t-120 -45zM461 -424q-176 0 -278.5 86t-102.5 232q0 63 20.5 115t68.5 98.5t85 73t111 73.5l65 43q37 25 57.5 40t40 43t19.5 56q0 63 -76 135l143 33q45 -27 78 -75t33 -101 q0 -51 -24.5 -96t-51 -69.5t-86.5 -74.5l-76 -65q-59 -51 -82.5 -98.5t-23.5 -121t51 -114.5t139 -41q84 0 129 29q-96 31 -96 127q0 57 37 92t92 35t94 -39t39 -105q0 -133 -117.5 -222t-287.5 -89z" />
<glyph unicode="&#xc0;" horiz-adv-x="1644" d="M-8 0v135q59 29 190 33l502 1272h297l467 -1272q137 -4 197 -33v-135h-734v135q61 29 199 33l-80 231h-545l-88 -231h19q152 0 217 -33v-135h-641zM764 1147l-213 -572h416zM940 1587l-295 172q-88 49 -88 131q0 45 32 73t83 28q63 0 141 -90l213 -265z" />
<glyph unicode="&#xc1;" horiz-adv-x="1644" d="M-8 0v135q59 29 190 33l502 1272h297l467 -1272q137 -4 197 -33v-135h-734v135q61 29 199 33l-80 231h-545l-88 -231h19q152 0 217 -33v-135h-641zM764 1147l-213 -572h416zM715 1587l-86 49l215 265q74 90 143 90q49 0 81 -28t32 -73q0 -80 -88 -131z" />
<glyph unicode="&#xc2;" horiz-adv-x="1644" d="M-8 0v135q59 29 190 33l502 1272h297l467 -1272q137 -4 197 -33v-135h-734v135q61 29 199 33l-80 231h-545l-88 -231h19q152 0 217 -33v-135h-641zM764 1147l-213 -572h416zM596 1585l-111 35l258 334h164l258 -334l-112 -35l-226 205z" />
<glyph unicode="&#xc3;" horiz-adv-x="1644" d="M-8 0v135q59 29 190 33l502 1272h297l467 -1272q137 -4 197 -33v-135h-734v135q61 29 199 33l-80 231h-545l-88 -231h19q152 0 217 -33v-135h-641zM764 1147l-213 -572h416zM510 1585l-70 84q8 88 65.5 143.5t139.5 55.5q63 0 190.5 -52.5t190.5 -52.5q74 0 111 105 l69 -84q-8 -88 -65.5 -143.5t-136.5 -55.5q-68 0 -201 52.5t-178 52.5q-80 -1 -115 -105z" />
<glyph unicode="&#xc4;" horiz-adv-x="1644" d="M-8 0v135q59 29 190 33l502 1272h297l467 -1272q137 -4 197 -33v-135h-734v135q61 29 199 33l-80 231h-545l-88 -231h19q152 0 217 -33v-135h-641zM764 1147l-213 -572h416zM1056.5 1628q-59.5 0 -98 41t-38.5 107q0 68 38.5 108.5t98 40.5t100.5 -42t41 -107.5 t-41 -106.5t-100.5 -41zM594 1628q-59 0 -99 41t-40 106.5t40 107.5t99 42q61 0 101 -41t40 -108q0 -66 -40 -107t-101 -41z" />
<glyph unicode="&#xc5;" horiz-adv-x="1644" d="M-8 0v135q59 29 190 33l502 1272h297l467 -1272q137 -4 197 -33v-135h-734v135q61 29 199 33l-80 231h-545l-88 -231h19q152 0 217 -33v-135h-641zM764 1147l-213 -572h416zM827 1585q-102 0 -167.5 62.5t-65.5 154.5q0 94 65.5 156.5t167.5 62.5q100 0 167 -63.5 t67 -155.5t-67 -154.5t-167 -62.5zM827.5 1688q51.5 0 82 32.5t30.5 81.5t-30.5 83t-82 34t-83 -34t-31.5 -83t31.5 -81.5t83 -32.5z" />
<glyph unicode="&#xc6;" horiz-adv-x="2248" d="M-8 0v133q70 37 217 37l651 1100q-129 4 -196 37v133h1468v-516h-145q-61 96 -80 327h-525v-458h226q10 113 53 190h139v-526h-139q-39 68 -51 182h-228v-451h541q20 240 82 340h147v-528h-1304v133q78 37 215 37h6v319h-448l-191 -319q133 -4 205 -37v-133h-643z M721 662h348v591z" />
<glyph unicode="&#xc7;" horiz-adv-x="1433" d="M709 -449q-90 0 -156 33l-14 119q78 -23 133 -22q94 0 94 65q0 43 -35 66.5t-98 40.5v16l86 108q-297 12 -472 195.5t-175 540.5q0 340 186 545.5t471 205.5q246 0 377 -141q39 106 80 141h125v-612h-146q-53 86 -75 309q-94 115 -279 115q-182 0 -291.5 -144.5 t-109.5 -410.5q0 -268 107.5 -402.5t303.5 -134.5q154 0 261.5 95.5t168.5 240.5l86 -98q-29 -174 -167 -299t-347 -143l-47 -62q80 -18 122 -65.5t42 -110.5q0 -86 -61 -138.5t-170 -52.5z" />
<glyph unicode="&#xc8;" horiz-adv-x="1486" d="M72 0v133q74 37 213 37h8v1100q-135 -6 -221 37v133h1298v-516h-147q-61 96 -80 327h-539v-458h242q10 104 53 190h139v-526h-139q-41 74 -51 182h-244v-451h557q6 86 28.5 189.5t51.5 150.5h150v-528h-1319zM940 1587l-295 172q-88 49 -88 131q0 45 32 73t83 28 q63 0 141 -90l213 -265z" />
<glyph unicode="&#xc9;" horiz-adv-x="1486" d="M72 0v133q74 37 213 37h8v1100q-135 -6 -221 37v133h1298v-516h-147q-61 96 -80 327h-539v-458h242q10 104 53 190h139v-526h-139q-41 74 -51 182h-244v-451h557q6 86 28.5 189.5t51.5 150.5h150v-528h-1319zM715 1587l-86 49l215 265q74 90 143 90q49 0 81 -28t32 -73 q0 -80 -88 -131z" />
<glyph unicode="&#xca;" horiz-adv-x="1486" d="M72 0v133q74 37 213 37h8v1100q-135 -6 -221 37v133h1298v-516h-147q-61 96 -80 327h-539v-458h242q10 104 53 190h139v-526h-139q-41 74 -51 182h-244v-451h557q6 86 28.5 189.5t51.5 150.5h150v-528h-1319zM596 1585l-111 35l258 334h164l258 -334l-112 -35l-226 205z " />
<glyph unicode="&#xcb;" horiz-adv-x="1486" d="M72 0v133q74 37 213 37h8v1100q-135 -6 -221 37v133h1298v-516h-147q-61 96 -80 327h-539v-458h242q10 104 53 190h139v-526h-139q-41 74 -51 182h-244v-451h557q6 86 28.5 189.5t51.5 150.5h150v-528h-1319zM1056.5 1628q-59.5 0 -98 41t-38.5 107q0 68 38.5 108.5 t98 40.5t100.5 -42t41 -107.5t-41 -106.5t-100.5 -41zM594 1628q-59 0 -99 41t-40 106.5t40 107.5t99 42q61 0 101 -41t40 -108q0 -66 -40 -107t-101 -41z" />
<glyph unicode="&#xcc;" horiz-adv-x="894" d="M72 0v133q74 37 221 37v1100q-147 0 -221 37v133h751v-133q-70 -37 -219 -37v-1100q150 0 219 -37v-133h-751zM563 1587l-295 172q-88 49 -88 131q0 45 32 73t83 28q63 0 141 -90l213 -265z" />
<glyph unicode="&#xcd;" horiz-adv-x="894" d="M72 0v133q74 37 221 37v1100q-147 0 -221 37v133h751v-133q-70 -37 -219 -37v-1100q150 0 219 -37v-133h-751zM338 1587l-86 49l215 265q74 90 143 90q49 0 81 -28t32 -73q0 -80 -88 -131z" />
<glyph unicode="&#xce;" horiz-adv-x="894" d="M72 0v133q74 37 221 37v1100q-147 0 -221 37v133h751v-133q-70 -37 -219 -37v-1100q150 0 219 -37v-133h-751zM219 1585l-110 35l258 334h163l258 -334l-112 -35l-225 205z" />
<glyph unicode="&#xcf;" horiz-adv-x="894" d="M72 0v133q74 37 221 37v1100q-147 0 -221 37v133h751v-133q-70 -37 -219 -37v-1100q150 0 219 -37v-133h-751zM680 1628q-59 0 -98 41t-39 107q0 68 39 108.5t98 40.5t100 -42t41 -107.5t-41 -106.5t-100 -41zM217 1628q-59 0 -99 41t-40 106.5t40 107.5t99 42 q61 0 101 -41t40 -108q0 -66 -40 -107t-101 -41z" />
<glyph unicode="&#xd0;" horiz-adv-x="1699" d="M84 651v137h209v484q-141 -2 -221 37v131h792q133 0 246 -23.5t210 -78t164.5 -135.5t105.5 -202.5t38 -273.5q0 -365 -209 -546t-555 -181h-792v131q74 37 221 37v483h-209zM831 1255h-235v-467h319v-137h-319v-467h235q223 0 346 140.5t123 402.5q0 260 -123 394 t-346 134z" />
<glyph unicode="&#xd1;" horiz-adv-x="1753" d="M76 0v135q66 33 217 33v1104q-152 0 -217 33v135h528l672 -983v815q-154 0 -215 33v135h647v-135q-66 -33 -223 -33v-1288h-242l-743 1069v-885q160 0 225 -33v-135h-649zM573 1585l-69 84q8 88 65.5 143.5t139.5 55.5q63 0 190 -52.5t191 -52.5q74 0 110 105l70 -84 q-8 -88 -65.5 -143.5t-137.5 -55.5q-68 0 -201 52.5t-178 52.5q-80 -1 -115 -105z" />
<glyph unicode="&#xd2;" horiz-adv-x="1615" d="M811 -25q-336 0 -537.5 193.5t-201.5 552.5q0 356 202.5 549.5t536.5 193.5q330 0 531.5 -193.5t201.5 -549.5q0 -358 -200.5 -552t-532.5 -194zM811 180q193 0 295 142.5t102 398.5t-102 397.5t-295 141.5q-195 0 -298 -141.5t-103 -397.5t103 -398.5t298 -142.5z M926 1587l-295 172q-88 49 -88 131q0 45 31.5 73t82.5 28q63 0 142 -90l213 -265z" />
<glyph unicode="&#xd3;" horiz-adv-x="1615" d="M811 -25q-336 0 -537.5 193.5t-201.5 552.5q0 356 202.5 549.5t536.5 193.5q330 0 531.5 -193.5t201.5 -549.5q0 -358 -200.5 -552t-532.5 -194zM811 180q193 0 295 142.5t102 398.5t-102 397.5t-295 141.5q-195 0 -298 -141.5t-103 -397.5t103 -398.5t298 -142.5z M700 1587l-86 49l215 265q74 90 144 90q49 0 80.5 -28t31.5 -73q0 -80 -88 -131z" />
<glyph unicode="&#xd4;" horiz-adv-x="1615" d="M811 -25q-336 0 -537.5 193.5t-201.5 552.5q0 356 202.5 549.5t536.5 193.5q330 0 531.5 -193.5t201.5 -549.5q0 -358 -200.5 -552t-532.5 -194zM811 180q193 0 295 142.5t102 398.5t-102 397.5t-295 141.5q-195 0 -298 -141.5t-103 -397.5t103 -398.5t298 -142.5z M582 1585l-111 35l258 334h164l258 -334l-113 -35l-225 205z" />
<glyph unicode="&#xd5;" horiz-adv-x="1615" d="M811 -25q-336 0 -537.5 193.5t-201.5 552.5q0 356 202.5 549.5t536.5 193.5q330 0 531.5 -193.5t201.5 -549.5q0 -358 -200.5 -552t-532.5 -194zM811 180q193 0 295 142.5t102 398.5t-102 397.5t-295 141.5q-195 0 -298 -141.5t-103 -397.5t103 -398.5t298 -142.5z M496 1585l-70 84q8 88 65.5 143.5t139.5 55.5q63 0 190 -52.5t191 -52.5q74 0 110 105l70 -84q-8 -88 -65.5 -143.5t-137.5 -55.5q-68 0 -201 52.5t-178 52.5q-79 -1 -114 -105z" />
<glyph unicode="&#xd6;" horiz-adv-x="1615" d="M811 -25q-336 0 -537.5 193.5t-201.5 552.5q0 356 202.5 549.5t536.5 193.5q330 0 531.5 -193.5t201.5 -549.5q0 -358 -200.5 -552t-532.5 -194zM811 180q193 0 295 142.5t102 398.5t-102 397.5t-295 141.5q-195 0 -298 -141.5t-103 -397.5t103 -398.5t298 -142.5z M1042.5 1628q-59.5 0 -98.5 41t-39 107q0 68 39 108.5t98.5 40.5t100.5 -42t41 -107.5t-41 -106.5t-100.5 -41zM580 1628q-59 0 -99.5 41t-40.5 106.5t40 107.5t100 42q61 0 101 -41t40 -108q0 -66 -40 -107t-101 -41z" />
<glyph unicode="&#xd7;" d="M332 299l-137 137l282 285l-282 283l137 139l284 -285l283 285l139 -139l-284 -283l284 -285l-139 -137l-283 283z" />
<glyph unicode="&#xd8;" horiz-adv-x="1615" d="M184 -16l-84 86l131 143q-160 193 -159 508q0 356 202.5 549.5t536.5 193.5q276 0 463 -137l149 162l95 -86l-150 -162q176 -193 176 -520q0 -358 -200.5 -552t-532.5 -194q-299 0 -492 152zM811 180q193 0 295 142.5t102 398.5q0 178 -51 299l-649 -692 q100 -148 303 -148zM410 721q0 -166 41 -277l641 691q-100 125 -281 125q-195 0 -298 -141.5t-103 -397.5z" />
<glyph unicode="&#xd9;" horiz-adv-x="1753" d="M899 -25q-332 0 -477.5 144.5t-145.5 406.5v744q-147 0 -221 37v133h754v-133q-74 -37 -221 -37v-756q0 -180 85 -263t251 -83t251 101.5t85 281.5v719q-145 0 -220 37v133h658v-133q-70 -37 -219 -37v-723q0 -252 -149.5 -412t-430.5 -160zM1034 1587l-295 172 q-88 49 -88 131q0 45 32 73t83 28q63 0 141 -90l213 -265z" />
<glyph unicode="&#xda;" horiz-adv-x="1753" d="M899 -25q-332 0 -477.5 144.5t-145.5 406.5v744q-147 0 -221 37v133h754v-133q-74 -37 -221 -37v-756q0 -180 85 -263t251 -83t251 101.5t85 281.5v719q-145 0 -220 37v133h658v-133q-70 -37 -219 -37v-723q0 -252 -149.5 -412t-430.5 -160zM809 1587l-86 49l215 265 q74 90 143 90q49 0 81 -28t32 -73q0 -80 -88 -131z" />
<glyph unicode="&#xdb;" horiz-adv-x="1753" d="M899 -25q-332 0 -477.5 144.5t-145.5 406.5v744q-147 0 -221 37v133h754v-133q-74 -37 -221 -37v-756q0 -180 85 -263t251 -83t251 101.5t85 281.5v719q-145 0 -220 37v133h658v-133q-70 -37 -219 -37v-723q0 -252 -149.5 -412t-430.5 -160zM690 1585l-110 35l258 334 h163l259 -334l-113 -35l-225 205z" />
<glyph unicode="&#xdc;" horiz-adv-x="1753" d="M899 -25q-332 0 -477.5 144.5t-145.5 406.5v744q-147 0 -221 37v133h754v-133q-74 -37 -221 -37v-756q0 -180 85 -263t251 -83t251 101.5t85 281.5v719q-145 0 -220 37v133h658v-133q-70 -37 -219 -37v-723q0 -252 -149.5 -412t-430.5 -160zM1151 1628q-59 0 -98 41 t-39 107q0 68 39 108.5t98 40.5t100 -42t41 -107.5t-41 -106.5t-100 -41zM688 1628q-59 0 -99 41t-40 106.5t40 107.5t99 42q61 0 101 -41t40 -108q0 -66 -40 -107t-101 -41z" />
<glyph unicode="&#xdd;" horiz-adv-x="1622" d="M451 0v137q70 37 227 37v363l-494 733q-125 2 -192 37v133h749v-133q-72 -33 -200 -37l356 -525l358 525q-145 4 -204 37v133h587v-133q-57 -31 -176 -37l-473 -701v-395q152 0 230 -37v-137h-768zM786 1587l-86 49l215 265q74 90 144 90q49 0 80.5 -28t31.5 -73 q0 -80 -88 -131z" />
<glyph unicode="&#xde;" horiz-adv-x="1492" d="M72 0v133q74 37 221 37v1100q-147 0 -221 37v133h751v-133q-70 -37 -219 -37v-90h328q522 0 522 -420q0 -229 -172 -348t-455 -119q-123 0 -223 14v-137h25q74 0 157.5 -11.5t112.5 -25.5v-133h-827zM848 991h-244v-514q68 -14 178 -14q172 0 260 74.5t88 210.5 q1 243 -282 243z" />
<glyph unicode="&#xdf;" horiz-adv-x="1404" d="M63 838v137q66 39 181 53v25q0 252 148.5 375.5t371.5 123.5q207 0 344 -94t137 -284q0 -150 -88 -246.5t-184 -102.5q150 -6 260 -110.5t110 -290.5q0 -225 -119.5 -337t-326.5 -112q-127 0 -197 37l-32 172q82 -20 145 -20q223 0 223 285q0 258 -264 258h-67v188h53 q184 0 184 283q0 106 -49 162.5t-135 56.5q-109 0 -159 -79t-50 -251v-1053h-2v-14h-498v127q76 35 195 37v674h-181z" />
<glyph unicode="&#xe0;" horiz-adv-x="1261" d="M403 -16q-150 0 -245 68.5t-95 207.5q0 299 474 299q100 0 188 -24l2 139q2 109 -54.5 161t-180.5 52q-100 0 -181 -47q43 -2 72 -28t29 -73q0 -55 -37 -86.5t-100.5 -31.5t-103.5 35.5t-40 101.5q0 125 140.5 212t310.5 87q238 0 346 -101.5t104 -287.5q-8 -270 -8 -359 q0 -70 24.5 -95.5t79.5 -25.5q72 0 127 33l-18 -139q-68 -98 -236 -98q-199 0 -256 149q-41 -66 -128 -107.5t-214 -41.5zM526 176q129 0 195 62l2 174q-70 12 -121 12q-219 0 -219 -133q0 -115 143 -115zM707 1155l-295 172q-88 49 -88 131q0 45 31.5 73t82.5 28 q63 0 142 -91l213 -264z" />
<glyph unicode="&#xe1;" horiz-adv-x="1261" d="M403 -16q-150 0 -245 68.5t-95 207.5q0 299 474 299q100 0 188 -24l2 139q2 109 -54.5 161t-180.5 52q-100 0 -181 -47q43 -2 72 -28t29 -73q0 -55 -37 -86.5t-100.5 -31.5t-103.5 35.5t-40 101.5q0 125 140.5 212t310.5 87q238 0 346 -101.5t104 -287.5q-8 -270 -8 -359 q0 -70 24.5 -95.5t79.5 -25.5q72 0 127 33l-18 -139q-68 -98 -236 -98q-199 0 -256 149q-41 -66 -128 -107.5t-214 -41.5zM526 176q129 0 195 62l2 174q-70 12 -121 12q-219 0 -219 -133q0 -115 143 -115zM481 1155l-86 49l215 264q74 90 144 91q49 0 80.5 -28t31.5 -73 q0 -80 -88 -131z" />
<glyph unicode="&#xe2;" horiz-adv-x="1261" d="M403 -16q-150 0 -245 68.5t-95 207.5q0 299 474 299q100 0 188 -24l2 139q2 109 -54.5 161t-180.5 52q-100 0 -181 -47q43 -2 72 -28t29 -73q0 -55 -37 -86.5t-100.5 -31.5t-103.5 35.5t-40 101.5q0 125 140.5 212t310.5 87q238 0 346 -101.5t104 -287.5q-8 -270 -8 -359 q0 -70 24.5 -95.5t79.5 -25.5q72 0 127 33l-18 -139q-68 -98 -236 -98q-199 0 -256 149q-41 -66 -128 -107.5t-214 -41.5zM526 176q129 0 195 62l2 174q-70 12 -121 12q-219 0 -219 -133q0 -115 143 -115zM362 1153l-110 35l258 334h164l258 -334l-113 -35l-225 205z" />
<glyph unicode="&#xe3;" horiz-adv-x="1261" d="M403 -16q-150 0 -245 68.5t-95 207.5q0 299 474 299q100 0 188 -24l2 139q2 109 -54.5 161t-180.5 52q-100 0 -181 -47q43 -2 72 -28t29 -73q0 -55 -37 -86.5t-100.5 -31.5t-103.5 35.5t-40 101.5q0 125 140.5 212t310.5 87q238 0 346 -101.5t104 -287.5q-8 -270 -8 -359 q0 -70 24.5 -95.5t79.5 -25.5q72 0 127 33l-18 -139q-68 -98 -236 -98q-199 0 -256 149q-41 -66 -128 -107.5t-214 -41.5zM526 176q129 0 195 62l2 174q-70 12 -121 12q-219 0 -219 -133q0 -115 143 -115zM276 1153l-69 84q8 88 65.5 143.5t139.5 55.5q63 0 190 -52.5 t191 -52.5q74 0 110 105l70 -84q-8 -88 -65.5 -143.5t-137.5 -55.5q-68 0 -201 52t-178 52q-80 0 -115 -104z" />
<glyph unicode="&#xe4;" horiz-adv-x="1261" d="M403 -16q-150 0 -245 68.5t-95 207.5q0 299 474 299q100 0 188 -24l2 139q2 109 -54.5 161t-180.5 52q-100 0 -181 -47q43 -2 72 -28t29 -73q0 -55 -37 -86.5t-100.5 -31.5t-103.5 35.5t-40 101.5q0 125 140.5 212t310.5 87q238 0 346 -101.5t104 -287.5q-8 -270 -8 -359 q0 -70 24.5 -95.5t79.5 -25.5q72 0 127 33l-18 -139q-68 -98 -236 -98q-199 0 -256 149q-41 -66 -128 -107.5t-214 -41.5zM526 176q129 0 195 62l2 174q-70 12 -121 12q-219 0 -219 -133q0 -115 143 -115zM823.5 1196q-59.5 0 -98.5 41t-39 106q0 68 39 109t98.5 41 t100.5 -42t41 -107.5t-41 -106.5t-100.5 -41zM360 1196q-59 0 -99 41t-40 106.5t40 107.5t99 42q61 0 101.5 -41t40.5 -109q0 -66 -40.5 -106.5t-101.5 -40.5z" />
<glyph unicode="&#xe5;" horiz-adv-x="1261" d="M403 -16q-150 0 -245 68.5t-95 207.5q0 299 474 299q100 0 188 -24l2 139q2 109 -54.5 161t-180.5 52q-100 0 -181 -47q43 -2 72 -28t29 -73q0 -55 -37 -86.5t-100.5 -31.5t-103.5 35.5t-40 101.5q0 125 140.5 212t310.5 87q238 0 346 -101.5t104 -287.5q-8 -270 -8 -359 q0 -70 24.5 -95.5t79.5 -25.5q72 0 127 33l-18 -139q-68 -98 -236 -98q-199 0 -256 149q-41 -66 -128 -107.5t-214 -41.5zM526 176q129 0 195 62l2 174q-70 12 -121 12q-219 0 -219 -133q0 -115 143 -115zM594 1153q-102 0 -168 62.5t-66 154.5q0 94 66 156.5t168 62.5 q100 0 166.5 -63.5t66.5 -155.5t-66.5 -154.5t-166.5 -62.5zM594 1255q51 0 82 33t31 82t-31 83t-82 34t-83 -34t-32 -83t32 -82t83 -33z" />
<glyph unicode="&#xe6;" horiz-adv-x="1824" d="M428 -16q-170 0 -271.5 68.5t-101.5 207.5q0 156 127 229.5t346 73.5q100 0 189 -24q0 14 2 20l2 107q2 109 -55.5 161t-184.5 52q-102 0 -178 -48q41 -2 69.5 -27.5t28.5 -72.5q0 -55 -36.5 -87t-98.5 -32q-63 0 -103 36t-40 102q0 125 140 212t310 87q254 0 361 -144 q59 59 151.5 97t194.5 38q211 0 334 -98t123 -256q0 -113 -33 -201h-676q12 -291 322 -290q104 0 191 42t138 107l47 -80q-20 -104 -141 -192t-309 -88q-295 0 -445 163q-37 -70 -141 -116.5t-262 -46.5zM770 242q-41 86 -49 172q-86 14 -129 14q-219 0 -219 -137 q0 -119 166 -119q127 0 231 70zM1272 850q-197 0 -236 -225h424v47q0 68 -45 123t-143 55z" />
<glyph unicode="&#xe7;" horiz-adv-x="1073" d="M541 -449q-90 0 -156 33l-14 119q78 -23 133 -22q94 0 94 65q0 43 -35 66.5t-98 40.5v16l92 117q-221 12 -359.5 142t-138.5 376q0 254 157 395t405 141q186 0 302.5 -91t116.5 -222q0 -72 -43 -116t-106.5 -44t-104.5 35t-41 96q0 47 35 83t80 46q-76 49 -186 50 q-143 0 -220 -94.5t-77 -256.5q0 -168 83 -249.5t224 -81.5q199 0 315 149l48 -80q-20 -96 -120 -180t-265 -96l-54 -70q80 -18 122 -65.5t42 -110.5q0 -86 -61 -138.5t-170 -52.5z" />
<glyph unicode="&#xe8;" horiz-adv-x="1171" d="M625 -16q-254 0 -410 129t-156 391q0 246 155 391t404 145q213 0 339 -100t126 -260q0 -121 -30 -201h-676q14 -285 321 -284q104 0 191.5 42t138.5 107l45 -80q-20 -102 -141 -191t-307 -89zM621 850q-201 0 -238 -232h428v41q0 74 -46 132.5t-144 58.5zM723 1155 l-295 172q-88 49 -88 131q0 45 31.5 73t83.5 28q63 0 141 -91l213 -264z" />
<glyph unicode="&#xe9;" horiz-adv-x="1171" d="M625 -16q-254 0 -410 129t-156 391q0 246 155 391t404 145q213 0 339 -100t126 -260q0 -121 -30 -201h-676q14 -285 321 -284q104 0 191.5 42t138.5 107l45 -80q-20 -102 -141 -191t-307 -89zM621 850q-201 0 -238 -232h428v41q0 74 -46 132.5t-144 58.5zM498 1155 l-86 49l215 264q74 90 143 91q49 0 81 -28t32 -73q0 -80 -88 -131z" />
<glyph unicode="&#xea;" horiz-adv-x="1171" d="M625 -16q-254 0 -410 129t-156 391q0 246 155 391t404 145q213 0 339 -100t126 -260q0 -121 -30 -201h-676q14 -285 321 -284q104 0 191.5 42t138.5 107l45 -80q-20 -102 -141 -191t-307 -89zM621 850q-201 0 -238 -232h428v41q0 74 -46 132.5t-144 58.5zM379 1153 l-111 35l258 334h164l258 -334l-112 -35l-226 205z" />
<glyph unicode="&#xeb;" horiz-adv-x="1171" d="M625 -16q-254 0 -410 129t-156 391q0 246 155 391t404 145q213 0 339 -100t126 -260q0 -121 -30 -201h-676q14 -285 321 -284q104 0 191.5 42t138.5 107l45 -80q-20 -102 -141 -191t-307 -89zM621 850q-201 0 -238 -232h428v41q0 74 -46 132.5t-144 58.5zM839.5 1196 q-59.5 0 -98.5 41t-39 106q0 68 39 109t98.5 41t100.5 -42t41 -107.5t-41 -106.5t-100.5 -41zM377 1196q-59 0 -99 41t-40 106.5t39.5 107.5t99.5 42q61 0 101 -41t40 -109q0 -66 -40 -106.5t-101 -40.5z" />
<glyph unicode="&#xec;" horiz-adv-x="770" d="M55 0v127q76 35 195 37v667q-41 -10 -111.5 -3.5t-105.5 20.5v133q98 43 297 43q147 0 225 -20v-840q121 -2 193 -37v-127h-693zM522 1155l-295 172q-88 49 -88 131q0 45 32 73t83 28q63 0 141 -91l213 -264z" />
<glyph unicode="&#xed;" horiz-adv-x="770" d="M55 0v127q76 35 195 37v667q-41 -10 -111.5 -3.5t-105.5 20.5v133q98 43 297 43q147 0 225 -20v-840q121 -2 193 -37v-127h-693zM297 1155l-86 49l215 264q74 90 143 91q49 0 81 -28t32 -73q0 -80 -88 -131z" />
<glyph unicode="&#xee;" horiz-adv-x="770" d="M55 0v127q76 35 195 37v667q-41 -10 -111.5 -3.5t-105.5 20.5v133q98 43 297 43q147 0 225 -20v-840q121 -2 193 -37v-127h-693zM178 1153l-110 35l258 334h163l259 -334l-113 -35l-225 205z" />
<glyph unicode="&#xef;" horiz-adv-x="770" d="M55 0v127q76 35 195 37v667q-41 -10 -111.5 -3.5t-105.5 20.5v133q98 43 297 43q147 0 225 -20v-840q121 -2 193 -37v-127h-693zM639 1196q-59 0 -98 41t-39 106q0 68 39 109t98 41t100 -42t41 -107.5t-41 -106.5t-100 -41zM176 1196q-59 0 -99 41t-40 106.5t40 107.5 t99 42q61 0 101 -41t40 -109q0 -66 -40 -106.5t-101 -40.5z" />
<glyph unicode="&#xf0;" d="M512 1049l-88 94l180 155q-84 51 -215 52q-127 0 -233 -52l16 175q102 63 277 63q193 0 339 -80l148 127l88 -88l-129 -113q227 -207 227 -667q0 -340 -150.5 -540t-428.5 -200q-213 0 -337 132.5t-124 341.5q0 223 116.5 355t313.5 132q102 0 181 -43t112 -113 q-14 297 -107 430zM571 147q113 0 172.5 130.5t63.5 365.5q-61 82 -182 82q-227 0 -227.5 -289t173.5 -289z" />
<glyph unicode="&#xf1;" horiz-adv-x="1443" d="M55 0v127q76 35 195 37v667q-41 -10 -111.5 -3.5t-105.5 20.5v133q98 43 297 43q147 0 225 -20v-168q59 205 324 204q373 0 372 -448v-428q119 -6 181 -37v-127h-646v127q57 29 162 35v430q0 123 -46 180t-150 57q-63 0 -116.5 -31.5t-80.5 -74.5v-561q100 -6 162 -35 v-127h-662zM436 1153l-69 84q8 88 65 143.5t139 55.5q63 0 190.5 -52.5t190.5 -52.5q74 0 111 105l70 -84q-8 -88 -65.5 -143.5t-137.5 -55.5q-68 0 -201 52t-178 52q-80 0 -115 -104z" />
<glyph unicode="&#xf2;" horiz-adv-x="1228" d="M614 -16q-252 0 -403.5 128t-151.5 400q0 258 155 393t400.5 135t399 -134t153.5 -394q0 -258 -152.5 -393t-400.5 -135zM614 182q113 0 175.5 83t62.5 247q0 160 -62.5 245t-175 85t-175 -84t-62.5 -246q-1 -330 237 -330zM731 1155l-295 172q-88 49 -88 131q0 45 32 73 t83 28q63 0 141 -91l213 -264z" />
<glyph unicode="&#xf3;" horiz-adv-x="1228" d="M614 -16q-252 0 -403.5 128t-151.5 400q0 258 155 393t400.5 135t399 -134t153.5 -394q0 -258 -152.5 -393t-400.5 -135zM614 182q113 0 175.5 83t62.5 247q0 160 -62.5 245t-175 85t-175 -84t-62.5 -246q-1 -330 237 -330zM506 1155l-86 49l215 264q74 90 143 91 q49 0 81 -28t32 -73q0 -80 -88 -131z" />
<glyph unicode="&#xf4;" horiz-adv-x="1228" d="M614 -16q-252 0 -403.5 128t-151.5 400q0 258 155 393t400.5 135t399 -134t153.5 -394q0 -258 -152.5 -393t-400.5 -135zM614 182q113 0 175.5 83t62.5 247q0 160 -62.5 245t-175 85t-175 -84t-62.5 -246q-1 -330 237 -330zM387 1153l-111 35l259 334h163l258 -334 l-112 -35l-226 205z" />
<glyph unicode="&#xf5;" horiz-adv-x="1228" d="M614 -16q-252 0 -403.5 128t-151.5 400q0 258 155 393t400.5 135t399 -134t153.5 -394q0 -258 -152.5 -393t-400.5 -135zM614 182q113 0 175.5 83t62.5 247q0 160 -62.5 245t-175 85t-175 -84t-62.5 -246q-1 -330 237 -330zM301 1153l-70 84q8 88 65.5 143.5t139.5 55.5 q63 0 190.5 -52.5t190.5 -52.5q74 0 111 105l69 -84q-8 -88 -65.5 -143.5t-136.5 -55.5q-68 0 -201 52t-178 52q-80 0 -115 -104z" />
<glyph unicode="&#xf6;" horiz-adv-x="1228" d="M614 -16q-252 0 -403.5 128t-151.5 400q0 258 155 393t400.5 135t399 -134t153.5 -394q0 -258 -152.5 -393t-400.5 -135zM614 182q113 0 175.5 83t62.5 247q0 160 -62.5 245t-175 85t-175 -84t-62.5 -246q-1 -330 237 -330zM847.5 1196q-59.5 0 -98 41t-38.5 106 q0 68 38.5 109t98 41t100.5 -42t41 -107.5t-41 -106.5t-100.5 -41zM385 1196q-59 0 -99 41t-40 106.5t40 107.5t99 42q61 0 101 -41t40 -109q0 -66 -40 -106.5t-101 -40.5z" />
<glyph unicode="&#xf7;" d="M616.5 936q-55.5 0 -95.5 40t-40 93q0 57 39 96t96 39q61 0 97.5 -38t36.5 -97q0 -55 -39 -94t-94.5 -39zM150 623v194h931v-194h-931zM616 236q-57 0 -96 39.5t-39 95t40 94.5t95 39q61 0 97.5 -39t36.5 -94.5t-39.5 -95t-94.5 -39.5z" />
<glyph unicode="&#xf8;" d="M150 -16l-68 67l96 96q-117 137 -117 365q0 258 155 393t400 135q215 0 361 -104l104 104l70 -67l-102 -101q121 -137 120 -360q0 -258 -152.5 -393t-400.5 -135q-227 0 -366 98zM616 182q113 0 175.5 83t62.5 247q0 86 -18 150l-400 -394q61 -86 180 -86zM379 512 q0 -92 14 -152l402 394q-66 88 -178.5 88t-175 -84t-62.5 -246z" />
<glyph unicode="&#xf9;" horiz-adv-x="1431" d="M557 -16q-367 0 -367 448v399q-43 -10 -110.5 -3.5t-104.5 20.5v133q98 43 293 43q150 0 226 -20v-568q0 -129 46 -185t148 -56q127 0 199 94v542q-43 -10 -110.5 -3.5t-104.5 20.5v133q96 43 299 43q143 0 219 -20v-820q41 10 112.5 4t106.5 -22v-133q-96 -43 -297 -43 q-154 0 -225 22v168q-78 -196 -330 -196zM811 1155l-295 172q-88 49 -88 131q0 45 32 73t83 28q63 0 141 -91l213 -264z" />
<glyph unicode="&#xfa;" horiz-adv-x="1431" d="M557 -16q-367 0 -367 448v399q-43 -10 -110.5 -3.5t-104.5 20.5v133q98 43 293 43q150 0 226 -20v-568q0 -129 46 -185t148 -56q127 0 199 94v542q-43 -10 -110.5 -3.5t-104.5 20.5v133q96 43 299 43q143 0 219 -20v-820q41 10 112.5 4t106.5 -22v-133q-96 -43 -297 -43 q-154 0 -225 22v168q-78 -196 -330 -196zM586 1155l-86 49l215 264q74 90 143 91q49 0 81 -28t32 -73q0 -80 -88 -131z" />
<glyph unicode="&#xfb;" horiz-adv-x="1431" d="M557 -16q-367 0 -367 448v399q-43 -10 -110.5 -3.5t-104.5 20.5v133q98 43 293 43q150 0 226 -20v-568q0 -129 46 -185t148 -56q127 0 199 94v542q-43 -10 -110.5 -3.5t-104.5 20.5v133q96 43 299 43q143 0 219 -20v-820q41 10 112.5 4t106.5 -22v-133q-96 -43 -297 -43 q-154 0 -225 22v168q-78 -196 -330 -196zM467 1153l-111 35l258 334h164l258 -334l-112 -35l-226 205z" />
<glyph unicode="&#xfc;" horiz-adv-x="1431" d="M557 -16q-367 0 -367 448v399q-43 -10 -110.5 -3.5t-104.5 20.5v133q98 43 293 43q150 0 226 -20v-568q0 -129 46 -185t148 -56q127 0 199 94v542q-43 -10 -110.5 -3.5t-104.5 20.5v133q96 43 299 43q143 0 219 -20v-820q41 10 112.5 4t106.5 -22v-133q-96 -43 -297 -43 q-154 0 -225 22v168q-78 -196 -330 -196zM927.5 1196q-59.5 0 -98 41t-38.5 106q0 68 38.5 109t98 41t100.5 -42t41 -107.5t-41 -106.5t-100.5 -41zM465 1196q-59 0 -99 41t-40 106.5t40 107.5t99 42q61 0 101 -41t40 -109q0 -66 -40 -106.5t-101 -40.5z" />
<glyph unicode="&#xfd;" horiz-adv-x="1134" d="M449 -2l-371 850q-80 10 -125 35v125h598v-125q-57 -31 -156 -39l221 -525l215 525q-109 2 -174 39v125h496v-125q-53 -29 -133 -37l-434 -989q-66 -152 -149 -229t-204 -77q-113 0 -178 52.5t-65 142.5q0 63 41 102t102 39q59 0 100 -29.5t41 -93.5q0 -70 -43 -108 q106 2 189 197l61 145h-32zM498 1155l-86 49l215 264q74 90 143 91q49 0 81 -28t32 -73q0 -80 -88 -131z" />
<glyph unicode="&#xfe;" horiz-adv-x="1323" d="M8 -449v127q57 33 195 37v1645q-43 -10 -113 -4t-106 20v133q98 43 299 43q147 0 223 -20v-686q29 88 111.5 141t220.5 53q193 0 310.5 -134t117.5 -363q0 -266 -134.5 -412.5t-361.5 -146.5q-205 0 -264 102v-371h8q178 0 246 -37v-127h-752zM713 829q-139 0 -207 -100 v-496q70 -66 180 -65q127 0 195.5 93t68.5 263q0 154 -64 229.5t-173 75.5z" />
<glyph unicode="&#xff;" horiz-adv-x="1134" d="M449 -2l-371 850q-80 10 -125 35v125h598v-125q-57 -31 -156 -39l221 -525l215 525q-109 2 -174 39v125h496v-125q-53 -29 -133 -37l-434 -989q-66 -152 -149 -229t-204 -77q-113 0 -178 52.5t-65 142.5q0 63 41 102t102 39q59 0 100 -29.5t41 -93.5q0 -70 -43 -108 q106 2 189 197l61 145h-32zM839.5 1196q-59.5 0 -98.5 41t-39 106q0 68 39 109t98.5 41t100.5 -42t41 -107.5t-41 -106.5t-100.5 -41zM377 1196q-59 0 -99 41t-40 106.5t39.5 107.5t99.5 42q61 0 101 -41t40 -109q0 -66 -40 -106.5t-101 -40.5z" />
<glyph unicode="&#x152;" horiz-adv-x="2402" d="M762 -25q-309 4 -499.5 194.5t-190.5 551t192.5 552t497.5 191.5q299 0 446 -200v176h1078v-516h-146q-61 96 -80 327h-540v-458h241q10 113 54 190h139v-526h-139q-39 68 -52 182h-243v-451h559q20 244 80 340h147v-528h-1098v172q-149 -199 -446 -197zM811 180 q186 0 288.5 135.5t108.5 378.5v27q0 256 -102 397.5t-295 141.5q-195 0 -298 -141.5t-103 -397.5t103 -398.5t298 -142.5z" />
<glyph unicode="&#x153;" horiz-adv-x="1947" d="M616 -16q-252 0 -403.5 128t-151.5 400q0 258 155 393t400 135q252 0 398 -149q139 150 381 149q215 0 340 -97t125 -257q0 -96 -33 -201h-674q12 -291 322 -290q104 0 190 42t137 107l45 -80q-20 -102 -140 -191t-306 -89q-264 0 -397 141q-146 -141 -388 -141zM616 182 q113 0 175.5 83t62.5 247q0 160 -62.5 245t-175 85t-175 -84t-62.5 -246q-1 -330 237 -330zM1397 850q-199 0 -236 -225h422v47q0 70 -44 124t-142 54z" />
<glyph unicode="&#x178;" horiz-adv-x="1622" d="M451 0v137q70 37 227 37v363l-494 733q-125 2 -192 37v133h749v-133q-72 -33 -200 -37l356 -525l358 525q-145 4 -204 37v133h587v-133q-57 -31 -176 -37l-473 -701v-395q152 0 230 -37v-137h-768zM1128.5 1628q-59.5 0 -98.5 41t-39 107q0 68 39 108.5t98.5 40.5 t100.5 -42t41 -107.5t-41 -106.5t-100.5 -41zM666 1628q-59 0 -99.5 41t-40.5 106.5t40 107.5t100 42q61 0 101 -41t40 -108q0 -66 -40 -107t-101 -41z" />
<glyph unicode="&#x2c6;" horiz-adv-x="1228" d="M385 1153l-111 35l258 334h164l258 -334l-112 -35l-226 205z" />
<glyph unicode="&#x2dc;" horiz-adv-x="1228" d="M299 1153l-70 84q8 88 65.5 143.5t139.5 55.5q63 0 190.5 -52.5t190.5 -52.5q74 0 111 105l69 -84q-8 -88 -65.5 -143.5t-136.5 -55.5q-68 0 -201 52t-178 52q-80 0 -115 -104z" />
<glyph unicode="&#x2000;" horiz-adv-x="1009" />
<glyph unicode="&#x2001;" horiz-adv-x="2021" />
<glyph unicode="&#x2002;" horiz-adv-x="1009" />
<glyph unicode="&#x2003;" horiz-adv-x="2021" />
<glyph unicode="&#x2004;" horiz-adv-x="673" />
<glyph unicode="&#x2005;" horiz-adv-x="503" />
<glyph unicode="&#x2006;" horiz-adv-x="335" />
<glyph unicode="&#x2007;" horiz-adv-x="335" />
<glyph unicode="&#x2008;" horiz-adv-x="251" />
<glyph unicode="&#x2009;" horiz-adv-x="403" />
<glyph unicode="&#x200a;" horiz-adv-x="110" />
<glyph unicode="&#x2010;" horiz-adv-x="751" d="M70 508v199h612v-199h-612z" />
<glyph unicode="&#x2011;" horiz-adv-x="751" d="M70 508v199h612v-199h-612z" />
<glyph unicode="&#x2012;" horiz-adv-x="751" d="M70 508v199h612v-199h-612z" />
<glyph unicode="&#x2013;" horiz-adv-x="999" d="M33 508v199h936v-199h-936z" />
<glyph unicode="&#x2014;" horiz-adv-x="2000" d="M33 508v199h1935v-199h-1935z" />
<glyph unicode="&#x2018;" horiz-adv-x="571" d="M287 848q-78 0 -125 53t-47 150q0 150 73.5 261t178.5 152l96 -51q-72 -45 -118 -113.5t-46 -123.5q150 -27 150 -168q0 -68 -47 -114t-115 -46z" />
<glyph unicode="&#x2019;" horiz-adv-x="571" d="M209 840l-96 51q72 43 117.5 111.5t45.5 123.5q-66 12 -107.5 54.5t-41.5 113.5q0 70 47 116t115 46q76 0 124 -53t48 -152q0 -147 -75 -259.5t-177 -151.5z" />
<glyph unicode="&#x201a;" horiz-adv-x="579" d="M209 -309l-96 51q72 43 117.5 111.5t45.5 123.5q-150 27 -149 168q0 70 47 116t115 46q76 0 124 -53t48 -150q0 -150 -75 -262t-177 -151z" />
<glyph unicode="&#x201c;" horiz-adv-x="1019" d="M731 846q-76 0 -123 53t-47 152q0 147 74 259.5t176 151.5l96 -51q-70 -43 -116 -111.5t-46 -123.5q66 -12 108 -54.5t42 -113.5q0 -70 -47 -116t-117 -46zM285 846q-78 0 -124 53t-46 152q0 147 73.5 259.5t176.5 151.5l96 -51q-72 -43 -118 -111.5t-46 -123.5 q66 -12 107.5 -54.5t41.5 -113.5q0 -70 -46.5 -116t-114.5 -46z" />
<glyph unicode="&#x201d;" horiz-adv-x="1019" d="M655 840l-96 51q72 43 119 111.5t47 123.5q-68 12 -110 54.5t-42 113.5q0 70 47.5 116t114.5 46q78 0 125 -53t47 -152q0 -147 -74 -259.5t-178 -151.5zM209 840l-96 51q72 43 117.5 111.5t45.5 123.5q-66 12 -107.5 54.5t-41.5 113.5q0 70 47 116t115 46q76 0 124 -53 t48 -152q0 -147 -75 -259.5t-177 -151.5z" />
<glyph unicode="&#x201e;" horiz-adv-x="1019" d="M655 -309l-96 51q72 43 119 111.5t47 123.5q-152 27 -152 168q0 70 47.5 116t114.5 46q78 0 125 -53t47 -150q0 -152 -74 -263t-178 -150zM209 -309l-96 51q72 43 117.5 111.5t45.5 123.5q-150 27 -149 168q0 70 47 116t115 46q76 0 124 -53t48 -150q0 -150 -75 -262 t-177 -151z" />
<glyph unicode="&#x2022;" horiz-adv-x="960" d="M479 256q-147 0 -248.5 103.5t-101.5 249t101.5 250t248.5 104.5q150 0 251 -104.5t101 -250t-101 -249t-251 -103.5z" />
<glyph unicode="&#x2026;" horiz-adv-x="1843" d="M305 -16q-70 0 -118 45t-48 116.5t46 116.5t120 45t120 -45t46 -116.5t-45 -116.5t-121 -45zM920 -16q-70 0 -118 45t-48 116.5t46 116.5t119.5 45t119.5 -45t46 -116.5t-44.5 -116.5t-120.5 -45zM1534 -16q-70 0 -118 45t-48 116.5t46 116.5t120 45t120 -45t46 -116.5 t-45 -116.5t-121 -45z" />
<glyph unicode="&#x202f;" horiz-adv-x="403" />
<glyph unicode="&#x2039;" horiz-adv-x="712" d="M477 190l-444 338v97l444 338l152 -70l-328 -318l328 -315z" />
<glyph unicode="&#x203a;" horiz-adv-x="712" d="M233 190l-147 70l324 315l-324 318l147 70l447 -338v-97z" />
<glyph unicode="&#x205f;" horiz-adv-x="503" />
<glyph unicode="&#x20ac;" d="M20 815v121h154q47 248 194.5 388t374.5 140q207 0 327 -120.5t122 -307.5l-117 -86q-49 305 -297 305q-129 0 -198.5 -79.5t-94.5 -239.5h324v-121h-336q-2 -31 -2 -94v-88h338v-121h-328q23 -168 90.5 -248t198.5 -80q233 0 354 314l84 -86q-35 -190 -159.5 -313.5 t-335.5 -123.5q-471 0 -545 537h-148v121h138q-2 25 -2 84q0 37 4 98h-140z" />
<glyph unicode="&#x2122;" horiz-adv-x="2101" d="M2056 776h-473v88q47 18 129 25v338l-231 -451h-113l-231 469v-356q80 -6 127 -25v-88h-383v88q55 20 143 25v438q-90 0 -143 25v88h366l223 -455l234 455h352v-88q-61 -25 -143 -25v-438q78 -2 143 -25v-88zM63 1167v273h752v-273h-88q-31 59 -31 176v9h-151v-463 q90 0 151 -25v-88h-512v88q57 25 152 25v463h-152v-9q0 -119 -32 -176h-89z" />
<glyph unicode="&#xe000;" horiz-adv-x="1010" d="M0 1010h1010v-1010h-1010v1010z" />
<glyph unicode="&#xfb01;" horiz-adv-x="1619" d="M905 0v127q76 35 195 37v667q-26 -6 -63 -6q-22 0 -49 2q-71 6 -105 21v133q98 43 297 43q147 0 225 -20v-840q125 -2 193 -37v-127h-693zM1229 1198q-80 0 -133 40t-53 113.5t53 113.5t133 40q82 0 133 -40t51 -113q0 -76 -52 -115t-132 -39zM63 821v137q68 41 181 58 v37q0 254 129 376.5t338 122.5q137 0 225 -64.5t88 -158.5q0 -70 -42 -111.5t-99 -41.5q-66 0 -105 32.5t-39 96.5q0 39 26 72.5t52 37.5q-25 4 -35 4q-233 0 -233 -362v-49h270v-187h-270v-657h4q174 0 248 -37v-127h-752v127q76 35 195 37v657h-181z" />
<glyph unicode="&#xfb02;" horiz-adv-x="1603" d="M868 0v127q72 35 195 37v1196q-27 -6 -65 -7q-23 0 -49 3q-71 6 -107 20v133q96 43 301 43q145 0 223 -20v-1368q119 -2 195 -37v-127h-693zM63 821v137q68 41 181 58v37q0 254 129 376.5t338 122.5q137 0 225 -64.5t88 -158.5q0 -70 -42 -111.5t-99 -41.5 q-66 0 -105 32.5t-39 96.5q0 39 26 72.5t52 37.5q-25 4 -35 4q-233 0 -233 -362v-49h270v-187h-270v-657h4q174 0 248 -37v-127h-752v127q76 35 195 37v657h-181z" />
<glyph unicode="&#xfb03;" horiz-adv-x="2469" d="M1755 0v127q76 35 195 37v667q-26 -6 -63 -6q-22 0 -49 2q-71 6 -105 21v133q98 43 297 43q147 0 225 -20v-840q125 -2 193 -37v-127h-693zM2079 1198q-80 0 -133 40t-53 113.5t53 113.5t133 40q82 0 133 -40t51 -113q0 -76 -52 -115t-132 -39zM913 821v137q68 41 181 58 v37q0 254 129 376.5t338 122.5q137 0 225 -64.5t88 -158.5q0 -70 -42 -111.5t-99 -41.5q-66 0 -105 32.5t-39 96.5q0 39 26 72.5t52 37.5q-25 4 -35 4q-233 0 -233 -362v-49h270v-187h-270v-657h4q174 0 248 -37v-127h-752v127q76 35 195 37v657h-181zM63 821v137 q68 41 181 58v37q0 254 129 376.5t338 122.5q137 0 225 -64.5t88 -158.5q0 -70 -42 -111.5t-99 -41.5q-66 0 -105 32.5t-39 96.5q0 39 26 72.5t52 37.5q-25 4 -35 4q-233 0 -233 -362v-49h270v-187h-270v-657h4q174 0 248 -37v-127h-752v127q76 35 195 37v657h-181z" />
<glyph unicode="&#xfb04;" horiz-adv-x="2453" d="M1718 0v127q72 35 195 37v1196q-27 -6 -65 -7q-23 0 -49 3q-71 6 -107 20v133q96 43 301 43q145 0 223 -20v-1368q119 -2 195 -37v-127h-693zM913 821v137q68 41 181 58v37q0 254 129 376.5t338 122.5q137 0 225 -64.5t88 -158.5q0 -70 -42 -111.5t-99 -41.5 q-66 0 -105 32.5t-39 96.5q0 39 26 72.5t52 37.5q-25 4 -35 4q-233 0 -233 -362v-49h270v-187h-270v-657h4q174 0 248 -37v-127h-752v127q76 35 195 37v657h-181zM63 821v137q68 41 181 58v37q0 254 129 376.5t338 122.5q137 0 225 -64.5t88 -158.5q0 -70 -42 -111.5 t-99 -41.5q-66 0 -105 32.5t-39 96.5q0 39 26 72.5t52 37.5q-25 4 -35 4q-233 0 -233 -362v-49h270v-187h-270v-657h4q174 0 248 -37v-127h-752v127q76 35 195 37v657h-181z" />
</font>
</defs>
</svg>
