<?xml version="1.0" standalone="no"?>
<!DOCTYPE svg PUBLIC "-//W3C//DTD SVG 1.1//EN" "http://www.w3.org/Graphics/SVG/1.1/DTD/svg11.dtd" >
<svg xmlns="http://www.w3.org/2000/svg">
<metadata>
This is a custom SVG webfont generated by Font Squirrel.
Copyright   :  Copyright c 2006 All rights reserved Parry is a design by Artur Schmal published by OurType wwwourtypecom
Designer    : Artur Schmal
Foundry     : OurType
Foundry URL : httpwwwourtypecom
</metadata>
<defs>
<font id="webfontyG9BqkGf" horiz-adv-x="1232" >
<font-face units-per-em="2048" ascent="1565" descent="-483" />
<missing-glyph horiz-adv-x="448" />
<glyph unicode=" "  horiz-adv-x="448" />
<glyph unicode="&#x09;" horiz-adv-x="448" />
<glyph unicode="&#xa0;" horiz-adv-x="448" />
<glyph unicode="!" horiz-adv-x="606" d="M182 475l-24 965h291l-27 -965h-240zM301 -16q-70 0 -116 44t-46 113.5t45 113.5t117 44t119 -44t47 -113.5t-47 -113.5t-119 -44z" />
<glyph unicode="&#x22;" horiz-adv-x="792" d="M506 1010l-37 430h246l-39 -430h-170zM123 1010l-37 430h242l-35 -430h-170z" />
<glyph unicode="#" d="M102 887v180h215l37 389l197 -20l-35 -369h266l35 389l197 -20l-33 -369h180v-180h-198l-31 -332h198v-180h-217l-34 -391l-197 20l35 371h-266l-37 -391l-197 20l35 371h-182v180h200l29 332h-197zM498 887l-29 -332h264l31 332h-266z" />
<glyph unicode="$" d="M561 -193v168q-223 4 -345 96.5t-122 262.5q0 61 17 110l270 27q-8 -43 -8 -76q0 -168 188 -180v383l-119 43q-328 113 -327 397q0 184 121.5 293t324.5 127v141h113v-141q199 -8 309.5 -99t110.5 -237q0 -55 -17 -104l-266 -29q8 47 8 82q0 131 -145 148v-375l78 -27 q197 -68 290 -158t93 -258q0 -190 -121 -296.5t-340 -124.5v-173h-113zM831 389q0 61 -38.5 98t-118.5 68v-332q157 33 157 166zM416 1057q0 -61 32.5 -101.5t112.5 -70.5v329q-145 -24 -145 -157z" />
<glyph unicode="%" horiz-adv-x="2048" d="M510 625q-227 0 -345 108.5t-118 307t118 307t345 108.5q225 0 343 -108.5t118 -307t-118 -307t-343 -108.5zM680 -16l-105 57l793 1448l105 -57zM1542 -16q-227 0 -345 108.5t-118 307t118 307t345 108.5q225 0 343 -108.5t118 -307t-118 -307t-343 -108.5zM510 827 q166 0 166 213q0 211 -166 211q-168 0 -168 -211q0 -213 168 -213zM1542 188q166 0 166 211q0 213 -166 213q-168 0 -168 -213q0 -211 168 -211z" />
<glyph unicode="&#x26;" horiz-adv-x="1552" d="M668 -25q-274 0 -432 103.5t-158 306.5q0 289 305 393q-129 160 -129 307q0 184 119 281.5t327 97.5q184 0 288 -86t104 -233q0 -133 -90.5 -223.5t-229.5 -143.5l381 -375q82 129 86 304v69h188v-69q0 -246 -133 -435q78 -68 164 -67q66 0 111 16l-29 -209 q-66 -37 -147 -37q-164 0 -303 107q-172 -107 -422 -107zM705 176q125 0 233 43l-426 420q-127 -84 -127 -213q0 -121 85 -185.5t235 -64.5zM551 1098q0 -90 92 -195q197 106 197 227q0 127 -135 127q-72 0 -113 -42.5t-41 -116.5z" />
<glyph unicode="'" horiz-adv-x="413" d="M123 1010l-37 430h242l-35 -430h-170z" />
<glyph unicode="(" horiz-adv-x="782" d="M508 -266q-154 115 -265.5 342t-111.5 544.5t111.5 543t265.5 337.5l242 -55q-166 -131 -268.5 -338t-102.5 -487q0 -532 371 -832z" />
<glyph unicode=")" horiz-adv-x="780" d="M272 -266l-239 55q369 299 368 832q0 281 -102 487.5t-266 337.5l239 55q154 -113 265.5 -338t111.5 -542.5t-111.5 -544.5t-265.5 -342z" />
<glyph unicode="*" horiz-adv-x="927" d="M778 725l-256 193l41 -318h-198l41 318l-256 -193l-101 172l297 123l-297 125l101 172l256 -195l-41 318h198l-41 -318l256 195l101 -172l-297 -125l297 -123z" />
<glyph unicode="+" d="M150 623v194h368v400h197v-400h366v-194h-366v-400h-197v400h-368z" />
<glyph unicode="," horiz-adv-x="608" d="M256 -326l-141 68q70 41 111.5 109.5t45.5 128.5q-53 10 -93 52t-40 109.5t46 112.5t114 45q76 0 123 -50t47 -147q0 -139 -60.5 -255t-152.5 -173z" />
<glyph unicode="-" horiz-adv-x="751" d="M70 504v207h612v-207h-612z" />
<glyph unicode="." horiz-adv-x="606" d="M301 -16q-70 0 -116 44t-46 113.5t45 113.5t117 44t119 -44t47 -113.5t-47 -113.5t-119 -44z" />
<glyph unicode="/" horiz-adv-x="921" d="M238 -31l-179 80l625 1452l178 -80z" />
<glyph unicode="0" d="M616 -25q-553 0 -553 744q0 348 145.5 542.5t407.5 194.5q276 0 413.5 -189.5t137.5 -547.5q0 -356 -141.5 -550t-409.5 -194zM616 231q127 0 187.5 120t60.5 368q0 250 -59.5 365.5t-188.5 115.5q-127 0 -187 -116.5t-60 -364.5t59 -368t188 -120z" />
<glyph unicode="1" d="M549 0v1126q-41 -29 -133 -54t-170 -21l-72 231q123 4 274.5 55.5t219.5 102.5h184v-1440h-303z" />
<glyph unicode="2" d="M80 0v186l340 299l109 99q34 31 91.5 92t83 105t47 106.5t21.5 128.5q0 199 -207 198q-221 0 -221 -249l14 -109l-233 29q-25 68 -25 129q0 211 132.5 326.5t363.5 115.5q227 0 359 -116.5t132 -329.5q0 -100 -37.5 -192.5t-113.5 -175.5t-145.5 -141.5t-176.5 -135.5 l-151 -115h680v-250h-1063z" />
<glyph unicode="3" d="M586 -25q-223 0 -347 96.5t-124 260.5q0 51 14 108l238 29q-8 -45 -9 -78q0 -182 211 -182q106 0 172 54t66 161q0 104 -65.5 149t-204.5 45h-88v193h67q133 0 200.5 59.5t67.5 167.5q0 186 -198 187q-209 0 -209 -215l12 -86l-237 30q-16 49 -17 105q0 184 132 290.5 t356 106.5q211 0 340 -99.5t129 -287.5q0 -127 -76 -218t-170 -116q123 -18 200.5 -108t77.5 -228q0 -201 -152.5 -312.5t-385.5 -111.5z" />
<glyph unicode="4" d="M684 0v293h-637v196l698 951h242v-897h205v-250h-205v-293h-303zM684 1049l-371 -506h371v506z" />
<glyph unicode="5" d="M565 -25q-227 0 -348 97.5t-121 259.5q0 59 17 108l237 29q-8 -45 -8 -78q0 -182 209 -182q121 0 184.5 65.5t63.5 190.5q0 117 -73 186.5t-204 69.5q-139 0 -250 -70l-108 35v754h842v-250h-600v-297q90 41 208 41q231 0 363.5 -128t132.5 -339q0 -227 -153.5 -359.5 t-391.5 -132.5z" />
<glyph unicode="6" d="M627 -25q-262 0 -393.5 173.5t-131.5 494.5q0 401 154 607t430 206q201 0 311.5 -90t110.5 -244q0 -55 -16 -104l-232 -29q8 47 8 82q0 158 -174 158q-137 0 -203.5 -109.5t-80.5 -361.5q45 63 130 101t189 38q193 0 308.5 -114.5t115.5 -315.5q0 -217 -144 -354.5 t-382 -137.5zM623 674q-70 0 -128.5 -30t-88.5 -73q2 -358 229 -358q100 0 157.5 68.5t57.5 175.5q0 217 -227 217z" />
<glyph unicode="7" d="M127 1190v250h1014v-240q-610 -621 -551 -1200h-301q-31 305 139 622.5t446 567.5h-747z" />
<glyph unicode="8" d="M606.5 -25q-239.5 0 -375 104.5t-135.5 293.5q0 231 230 346q-197 119 -197 334q0 182 136 292.5t374 110.5q213 0 340 -99.5t127 -285.5q0 -109 -59.5 -194.5t-147.5 -128.5q240 -121 240 -347q0 -199 -146.5 -312.5t-386 -113.5zM573 610l-67 27q-139 -82 -139 -229 q0 -100 63.5 -151.5t173.5 -51.5q104 0 164.5 49t60.5 135q0 82 -59.5 126t-196.5 95zM438 1065q0 -80 56.5 -127t177.5 -92l33 -15q139 82 139 220q0 86 -55.5 132t-149.5 46q-96 0 -148.5 -45t-52.5 -119z" />
<glyph unicode="9" d="M555 -25q-199 0 -311.5 91.5t-112.5 242.5q0 55 16 105l234 28q-8 -47 -8 -82q0 -156 176 -155q131 0 197.5 106.5t80.5 350.5q-96 -125 -317 -125q-195 0 -309.5 114.5t-114.5 315.5q0 215 145.5 352t382.5 137q262 0 393.5 -173t131.5 -495q0 -399 -155 -606t-429 -207 zM618 758q68 0 126.5 29.5t89.5 70.5q-2 362 -232 363q-100 0 -156.5 -69t-56.5 -175q0 -219 229 -219z" />
<glyph unicode=":" horiz-adv-x="606" d="M301 717q-70 0 -116 44t-46 113.5t46 114.5t116 45q72 0 119 -45t47 -115q0 -68 -47 -112.5t-119 -44.5zM301 -16q-70 0 -116 44t-46 113.5t45 113.5t117 44t119 -44t47 -113.5t-47 -113.5t-119 -44z" />
<glyph unicode=";" horiz-adv-x="608" d="M301 717q-70 0 -116 44t-46 113.5t46 114.5t116 45q72 0 119 -45t47 -115q0 -68 -47 -112.5t-119 -44.5zM256 -326l-141 68q70 41 111.5 109.5t45.5 128.5q-53 10 -93 52t-40 109.5t46 112.5t114 45q76 0 123 -50t47 -147q0 -139 -60.5 -255t-152.5 -173z" />
<glyph unicode="&#x3c;" d="M961 182l-811 449v180l811 446l98 -188l-651 -348l651 -350z" />
<glyph unicode="=" d="M150 817v199h931v-199h-931zM150 420v198h931v-198h-931z" />
<glyph unicode="&#x3e;" d="M272 182l-98 189l649 350l-649 348l98 188l809 -446v-180z" />
<glyph unicode="?" horiz-adv-x="985" d="M297 418q-63 63 -63.5 159.5t46 150.5t154.5 124l68 43q137 82 137 213q0 129 -139 129q-160 0 -160 -180l8 -80l-227 22q-16 49 -17 88q0 166 111 267.5t311 101.5q182 0 290 -90t108 -244q0 -76 -23.5 -137t-72 -110.5t-87.5 -79t-104 -70.5l-72 -41l-40 -27 q-9 -6 -27.5 -24.5t-23.5 -36.5t-5 -45q0 -55 49 -109zM416 -16q-70 0 -116 44t-46 113.5t45 113.5t116.5 44t118 -44t46.5 -113.5t-46 -113.5t-118 -44z" />
<glyph unicode="@" horiz-adv-x="2068" d="M852 -16q-158 0 -255 68.5t-97 207.5q0 150 122.5 222.5t335.5 72.5q94 0 193 -23l2 148q0 96 -33 136t-123 40q-160 0 -159 -139q0 -61 16 -96l-246 16q-41 51 -41 131q0 143 126 217t327 74q238 0 336 -103.5t94 -291.5q-8 -270 -8 -359q0 -72 21.5 -100.5t86.5 -28.5 q96 0 174 125t78 375q0 313 -194.5 476t-546.5 163q-354 0 -577.5 -213t-223.5 -576q0 -760 737 -759q209 0 349 67l-19 -151q-49 -39 -150.5 -64t-218.5 -25q-414 0 -654.5 248t-240.5 684q0 416 270.5 688.5t727.5 272.5q430 0 682 -217t252 -594q0 -319 -144.5 -505.5 t-392.5 -186.5q-92 0 -168 33.5t-106 107.5q-86 -141 -332 -141zM963 182q121 0 188 64v147q-61 14 -125 15q-213 0 -213 -119q0 -107 150 -107z" />
<glyph unicode="A" horiz-adv-x="1378" d="M8 0l537 1440h336l481 -1440h-311l-105 307h-549l-112 -307h-277zM686 1085l-211 -565h402z" />
<glyph unicode="B" horiz-adv-x="1413" d="M176 0v1440h617q223 0 347 -94.5t124 -290.5q0 -213 -181 -307q100 -33 171 -113t71 -225q0 -195 -130 -302.5t-374 -107.5h-645zM1022 436q0 182 -227 182h-316v-368h297q246 0 246 186zM737 1190h-258v-363h260q225 0 226 191q0 92 -57.5 132t-170.5 40z" />
<glyph unicode="C" horiz-adv-x="1390" d="M760 -25q-311 0 -491.5 189.5t-180.5 556.5q0 362 188.5 552.5t491.5 190.5q242 0 388.5 -118.5t146.5 -339.5q0 -59 -25 -127l-283 -29q12 68 13 119q0 127 -59.5 182t-188.5 55q-172 0 -263 -125t-91 -360q0 -481 397 -481q129 0 233.5 63.5t159.5 153.5l104 -213 q-68 -125 -204.5 -197t-335.5 -72z" />
<glyph unicode="D" horiz-adv-x="1531" d="M176 0v1440h496q170 0 304 -37t242.5 -118t167 -222t58.5 -338q0 -188 -59.5 -330.5t-166 -226.5t-243.5 -126t-303 -42h-496zM666 1190h-187v-940h187q229 0 344.5 112.5t115.5 362.5q0 246 -116.5 355.5t-343.5 109.5z" />
<glyph unicode="E" horiz-adv-x="1298" d="M176 0v1440h977v-250h-674v-356h561v-205h-561v-379h682v-250h-985z" />
<glyph unicode="F" horiz-adv-x="1167" d="M176 0v1440h961v-250h-658v-375h535v-205h-535v-610h-303z" />
<glyph unicode="G" horiz-adv-x="1492" d="M1176 -16q-43 41 -64 106q-141 -115 -352 -115q-303 0 -487.5 190.5t-184.5 555.5q0 367 197.5 555t509.5 188q254 0 408.5 -116.5t154.5 -337.5q0 -59 -25 -127l-282 -19q16 57 16 109q0 233 -283 233q-182 0 -280 -126t-98 -359q0 -492 413 -492q164 0 277 82v164h-275 v207h551v-698h-196z" />
<glyph unicode="H" horiz-adv-x="1579" d="M176 0v1440h303v-600h623v600h303v-1440h-303v608h-623v-608h-303z" />
<glyph unicode="I" horiz-adv-x="655" d="M176 0v1440h303v-1440h-303z" />
<glyph unicode="J" horiz-adv-x="806" d="M244 -25q-115 0 -226 37l-26 242q72 -29 176 -29q90 0 132 47t42 146v1022h303v-1053q0 -195 -105.5 -303.5t-295.5 -108.5z" />
<glyph unicode="K" horiz-adv-x="1423" d="M176 0v1440h303v-662l602 662h359l-549 -598l518 -842h-344l-381 621l-205 -224v-397h-303z" />
<glyph unicode="L" horiz-adv-x="1161" d="M176 0v1440h303v-1190h668v-250h-971z" />
<glyph unicode="M" horiz-adv-x="1861" d="M176 0v1440h348l410 -971l418 971h334v-1440h-277v840l-365 -840h-239l-361 836v-836h-268z" />
<glyph unicode="N" horiz-adv-x="1497" d="M176 0v1440h285l602 -934v934h260v-1440h-281l-606 926v-926h-260z" />
<glyph unicode="O" horiz-adv-x="1593" d="M799 -25q-313 0 -512 193.5t-199 552.5q0 356 198.5 549.5t512.5 193.5q309 0 507.5 -193.5t198.5 -549.5q0 -358 -197.5 -552t-508.5 -194zM799 240q188 0 289.5 120.5t101.5 360.5q0 236 -101.5 357.5t-289.5 121.5q-184 0 -288.5 -124t-104.5 -355 q0 -238 103.5 -359.5t289.5 -121.5z" />
<glyph unicode="P" horiz-adv-x="1284" d="M176 0v1440h531q258 0 405.5 -111.5t147.5 -345.5q0 -236 -155 -362.5t-398 -126.5h-228v-494h-303zM688 1190h-209v-490h223q121 0 188.5 71t67.5 192q0 227 -270 227z" />
<glyph unicode="Q" horiz-adv-x="1593" d="M1008 -305l-238 280q-303 10 -492.5 203t-189.5 543q0 356 198.5 549.5t512.5 193.5q309 0 507.5 -193.5t198.5 -549.5q0 -279 -124 -460t-334 -249l276 -317h-315zM799 240q188 0 289.5 120.5t101.5 360.5q0 236 -101.5 357.5t-289.5 121.5q-184 0 -288.5 -124 t-104.5 -355q0 -238 103.5 -359.5t289.5 -121.5z" />
<glyph unicode="R" horiz-adv-x="1398" d="M176 0v1440h578q238 0 374 -104.5t136 -325.5q0 -299 -267 -402q57 -18 100.5 -80.5t61.5 -142.5l49 -192q33 -125 111 -193h-346q-66 72 -88 193l-39 192q-18 90 -55 133q-35 41 -110 41h-7h-195v-559h-303zM705 1190h-226v-434h240q246 0 246 227q0 207 -260 207z" />
<glyph unicode="S" horiz-adv-x="1267" d="M590 -25q-150 0 -294 42t-216 104l41 250q82 -57 210 -99.5t251 -42.5q291 0 290 160q0 37 -15 64.5t-54 51t-68.5 36t-95.5 34.5l-190 66q-170 59 -250 153.5t-80 243.5q0 207 143.5 316.5t380.5 109.5q152 0 285 -48t198 -116l-49 -241q-74 66 -194.5 114t-239.5 48 q-219 0 -219 -164q0 -59 44 -100.5t142 -73.5l174 -62q205 -72 300.5 -160t95.5 -260q0 -211 -163 -318.5t-427 -107.5z" />
<glyph unicode="T" horiz-adv-x="1273" d="M8 1198v242h1258v-242h-478v-1198h-305v1198h-475z" />
<glyph unicode="U" horiz-adv-x="1511" d="M758 -25q-293 0 -445.5 139.5t-152.5 405.5v920h305v-922q0 -299 303 -299q143 0 225 78t82 221v922h277v-920q0 -272 -155.5 -408.5t-438.5 -136.5z" />
<glyph unicode="V" horiz-adv-x="1323" d="M508 0l-492 1440h320l346 -1028l367 1028h282l-524 -1440h-299z" />
<glyph unicode="W" horiz-adv-x="2097" d="M463 0l-447 1440h320l303 -1008l344 1008h176l324 -1010l340 1010h282l-499 -1440h-295l-267 821l-288 -821h-293z" />
<glyph unicode="X" horiz-adv-x="1370" d="M999 0l-321 467l-320 -467h-311l475 690l-518 750h365l336 -486l333 486h310l-490 -713l506 -727h-365z" />
<glyph unicode="Y" horiz-adv-x="1275" d="M477 0v549l-502 891h328l354 -629l367 629h276l-516 -871v-569h-307z" />
<glyph unicode="Z" horiz-adv-x="1284" d="M47 0v96l709 1094h-676v250h1134v-97l-708 -1093h715v-250h-1174z" />
<glyph unicode="[" horiz-adv-x="641" d="M117 -256v1759h491v-205h-252v-1347h252v-207h-491z" />
<glyph unicode="\" horiz-adv-x="921" d="M684 -31l-625 1452l179 80l624 -1452z" />
<glyph unicode="]" horiz-adv-x="641" d="M37 -256v207h252v1347h-252v205h491v-1759h-491z" />
<glyph unicode="^" horiz-adv-x="1112" d="M223 516l-186 94l426 830h178l426 -830l-188 -94l-326 666z" />
<glyph unicode="_" horiz-adv-x="999" d="M33 -289v205h936v-205h-936z" />
<glyph unicode="`" horiz-adv-x="1247" d="M840 1243l-105 -106l-397 303l141 159z" />
<glyph unicode="a" horiz-adv-x="1234" d="M420 -16q-158 0 -254 68.5t-96 207.5q0 150 122.5 222.5t335.5 72.5q94 0 195 -23l2 148q0 94 -35 135t-125 41q-158 0 -157 -139q0 -61 16 -96l-246 16q-41 51 -41 131q0 143 126 217t325 74q240 0 338 -104q94 -99 94 -277v-14q-8 -252 -8 -340q0 -66 22.5 -92.5 t77.5 -26.5t100 20l-34 -184q-66 -57 -193 -57q-176 0 -240 131q-89 -131 -325 -131zM532 182q113 0 189 64v147q-61 14 -125 15q-213 0 -213 -119q-1 -107 149 -107z" />
<glyph unicode="b" horiz-adv-x="1251" d="M692 -16q-98 0 -172 31.5t-110 80.5q-43 -98 -121 -133l-172 47q29 92 28 264v1250l297 28v-667q88 156 312 155q201 0 313.5 -135t112.5 -368q0 -258 -132.5 -405.5t-355.5 -147.5zM641 815q-139 0 -199 -106v-457q66 -66 181 -66q119 0 184 87t65 241q0 145 -58 223 t-173 78z" />
<glyph unicode="c" horiz-adv-x="1105" d="M608 -16q-244 0 -390 133t-146 399q0 256 144 390t388 134q209 0 328 -84t119 -237q0 -90 -31 -146l-252 -16q12 29 12 94q0 86 -42 125t-130 39q-225 0 -225 -295q0 -160 69.5 -232.5t206.5 -72.5q106 0 193.5 37t132.5 92l25 -215q-39 -55 -144.5 -100t-257.5 -45z" />
<glyph unicode="d" horiz-adv-x="1273" d="M514 -16q-207 0 -322.5 136t-115.5 372q0 248 142 398t362 150q162 0 233 -71v555l297 28v-1552h-297v125q-86 -141 -299 -141zM616 205q141 0 197 98v479q-61 51 -170 52q-117 0 -187.5 -87.5t-70.5 -236.5q0 -145 59 -225t172 -80z" />
<glyph unicode="e" horiz-adv-x="1132" d="M625 -16q-262 0 -407.5 135t-145.5 395q0 246 144 386t388 140q215 0 335 -102t120 -276q0 -76 -29 -191h-647q16 -258 291 -258q106 0 195 37t137 94l24 -194q-39 -61 -144 -113.5t-261 -52.5zM598 825q-172 0 -209 -207h379v29q0 178 -170 178z" />
<glyph unicode="f" horiz-adv-x="817" d="M39 788l37 220h137v79q0 229 108.5 347t319.5 118q176 0 269.5 -71.5t93.5 -208.5q0 -80 -25 -133l-236 -21q12 43 13 94q0 74 -27 106t-84 32q-76 0 -106.5 -60.5t-30.5 -181.5v-100h278v-220h-278v-788h-295v788h-174z" />
<glyph unicode="g" horiz-adv-x="1218" d="M553 -449q-244 0 -368 70t-124 189q0 152 175 192q-106 57 -107 154q0 74 48 124t126 70q-199 90 -199 322q0 133 73 221t171 122t215 34q215 0 342 -107q72 109 187 109q82 0 131 -56l14 -170q-66 16 -125 17q-61 0 -115 -29q27 -68 27 -141q0 -82 -27.5 -146.5 t-73.5 -106.5t-106.5 -69.5t-124 -39t-129.5 -11.5h-14h-11q-167 0 -167 -61q0 -53 116 -54h263q369 0 368 -282q0 -162 -152.5 -256.5t-412.5 -94.5zM563 483q86 0 135.5 50.5t49.5 138.5q0 90 -49.5 141t-135.5 51t-134 -51t-48 -141q0 -88 48 -138.5t134 -50.5zM498 -47 q-37 0 -103 4q-43 -10 -70.5 -38t-27.5 -64q0 -115 264 -115q135 0 214 35t79 96q0 82 -137 82h-219z" />
<glyph unicode="h" horiz-adv-x="1263" d="M838 0v569q0 125 -46.5 181.5t-146.5 56.5q-133 0 -203 -109v-698h-297v1524l297 28v-667q82 156 308 155q385 0 385 -450v-590h-297z" />
<glyph unicode="i" horiz-adv-x="587" d="M297 1202q-70 0 -115 40t-45 114q0 70 45 111.5t115 41.5q68 0 112 -42t44 -111q0 -74 -44 -114t-112 -40zM145 0v1012l297 28v-1040h-297z" />
<glyph unicode="j" horiz-adv-x="587" d="M297 1202q-70 0 -115 40t-45 114q0 70 45 111.5t115 41.5q68 0 112 -42t44 -111q0 -74 -44 -114t-112 -40zM53 -449q-102 0 -182 43l-23 216q53 -23 144 -23q154 0 153 176v1049l297 28v-1073q0 -193 -98 -304.5t-291 -111.5z" />
<glyph unicode="k" horiz-adv-x="1208" d="M850 0l-262 397l-146 -145v-252h-297v1524l297 28v-979l430 435h322l-406 -408l404 -600h-342z" />
<glyph unicode="l" horiz-adv-x="587" d="M145 0v1524l297 28v-1552h-297z" />
<glyph unicode="m" horiz-adv-x="1927" d="M145 0v1012l297 28v-157q82 158 299 157q248 0 332 -196q39 90 125 143t211 53q381 0 381 -450v-590h-297v569q0 125 -44 181.5t-144 56.5q-125 0 -193 -107q6 -53 6 -110v-590h-297v569q0 125 -42 181.5t-140 56.5q-131 0 -197 -109v-698h-297z" />
<glyph unicode="n" horiz-adv-x="1263" d="M145 0v1012l297 28v-155q82 156 308 155q385 0 385 -450v-590h-297v569q0 125 -46.5 181.5t-146.5 56.5q-133 0 -203 -109v-698h-297z" />
<glyph unicode="o" horiz-adv-x="1247" d="M625 -20q-244 0 -398.5 136t-154.5 396q0 258 157.5 395t395.5 137q236 0 392.5 -137t156.5 -395q0 -260 -153.5 -396t-395.5 -136zM625 213q115 0 178 76t63 223q0 145 -63.5 222t-177.5 77q-117 0 -179.5 -76t-62.5 -223t62.5 -223t179.5 -76z" />
<glyph unicode="p" horiz-adv-x="1251" d="M145 -449v1461l297 28v-159q41 72 120 115.5t188 43.5q199 0 314.5 -136t115.5 -367q0 -254 -136.5 -403.5t-365.5 -149.5q-162 0 -236 67v-500h-297zM641 815q-139 0 -199 -106v-457q63 -66 181 -66q119 0 184 87t65 241q0 145 -58 223t-173 78z" />
<glyph unicode="q" horiz-adv-x="1273" d="M813 -449v564q-82 -131 -289 -131q-211 0 -329.5 136t-118.5 372q0 242 141 395t363 153q205 0 276 -104q29 70 80 115l201 -39q-27 -86 -27 -264v-1197h-297zM616 205q141 0 197 98v363q0 80 4 114q-63 53 -170 54q-121 0 -191.5 -86t-70.5 -238q0 -145 59 -225t172 -80 z" />
<glyph unicode="r" horiz-adv-x="948" d="M145 0v1012l297 28v-176q27 78 93.5 127t166.5 49q244 0 244 -260q0 -78 -24 -135l-238 -27q12 43 12 103q0 61 -22.5 87t-71.5 26q-59 0 -101 -49.5t-59 -108.5v-676h-297z" />
<glyph unicode="s" horiz-adv-x="1019" d="M485 -16q-129 0 -243.5 30.5t-165.5 75.5l26 207q59 -41 159.5 -69.5t203.5 -28.5q186 0 186 90q0 41 -34.5 61.5t-120.5 40.5l-99 27q-301 76 -301 297q0 152 122 238.5t319 86.5q125 0 225 -36.5t139 -79.5l-35 -193q-49 39 -145 66.5t-174 27.5q-162 0 -162 -92 q0 -41 37 -61.5t127 -42.5l92 -27q156 -41 231.5 -109.5t75.5 -189.5q0 -154 -127 -236.5t-336 -82.5z" />
<glyph unicode="t" horiz-adv-x="905" d="M27 788l43 220h127v12q0 158 45 262l254 41v-315h327v-220h-327v-415q0 -160 135 -160q121 0 198 86l45 -160q-90 -156 -331 -155q-346 0 -346 366v438h-170z" />
<glyph unicode="u" horiz-adv-x="1263" d="M514 -16q-385 0 -385 444v580l297 32v-585q0 -125 46 -181.5t149 -56.5q135 0 200 102v689l297 32v-1028l-297 -28v147q-90 -147 -307 -147z" />
<glyph unicode="v" horiz-adv-x="1052" d="M360 -6l-362 1014h311l228 -678l243 678h273l-398 -1014h-295z" />
<glyph unicode="w" horiz-adv-x="1667" d="M346 -6l-348 1014h311l213 -676l234 676h192l207 -674l242 674h268l-385 -1014h-301l-166 506l-180 -506h-287z" />
<glyph unicode="x" horiz-adv-x="1138" d="M768 0l-223 291l-228 -291h-301l379 481l-401 527h375l217 -285l225 285h299l-377 -478l408 -530h-373z" />
<glyph unicode="y" horiz-adv-x="1097" d="M231 -449l193 431l-426 1026h330l252 -654l256 654h268l-588 -1457h-285z" />
<glyph unicode="z" horiz-adv-x="991" d="M49 0v117l486 671h-463l39 220h835v-119l-481 -666h493v-223h-909z" />
<glyph unicode="{" horiz-adv-x="890" d="M666 -256q-156 0 -257.5 87t-101.5 259v225q0 106 -54 158.5t-196 52.5v211q141 0 195.5 51.5t54.5 159.5v203q0 172 97.5 262t261.5 90q74 0 147 -18l27 -195q-61 16 -113 17q-178 0 -178 -185v-184q0 -135 -65.5 -213t-188.5 -92q254 -33 254 -307v-217 q0 -166 178 -166q41 0 113 14l-27 -193q-61 -20 -147 -20z" />
<glyph unicode="|" horiz-adv-x="606" d="M207 -449v2048h192v-2048h-192z" />
<glyph unicode="}" horiz-adv-x="890" d="M223 -256q-82 0 -147 20l-27 193q76 -14 113 -14q180 0 180 166v217q0 274 254 307q-123 14 -188.5 92t-65.5 213v184q0 184 -180 185q-47 0 -113 -17l27 195q78 18 147 18q164 0 261.5 -90t97.5 -262v-203q0 -109 54 -160t195 -51v-211q-141 0 -195 -52t-54 -159v-225 q0 -172 -101.5 -259t-257.5 -87z" />
<glyph unicode="~" d="M129 543v219q92 135 231 135q90 0 264.5 -80t256.5 -80q57 0 112.5 40t83.5 79l27 41v-219q-100 -135 -232 -135q-90 0 -264 79.5t-256 79.5q-37 0 -72.5 -16t-61 -39.5t-47 -47.5t-32.5 -40z" />
<glyph unicode="&#xa1;" horiz-adv-x="606" d="M301 725q-72 0 -117 44t-45 113.5t46 113.5t116 44q72 0 119 -44t47 -113.5t-47 -113.5t-119 -44zM158 -416l24 965h240l27 -965h-291z" />
<glyph unicode="&#xa2;" d="M594 -193v170q-268 18 -399.5 203t-131.5 541q0 322 141.5 513t389.5 224v141h113v-135q217 -4 337.5 -122.5t120.5 -325.5q0 -66 -22 -127l-256 -31q10 63 10 111q0 221 -190 235v-962q197 27 196 268l-6 80l256 -29q14 -53 14 -108q0 -199 -128 -329t-332 -147v-170 h-113zM369 721q0 -217 52 -334t173 -141v950q-225 -61 -225 -475z" />
<glyph unicode="&#xa3;" d="M96 600v188h168l-16 93q-8 57 -8 123q0 211 134 333.5t345 122.5q209 0 319.5 -91t110.5 -247q0 -70 -16 -118l-256 -27q8 59 8 94q0 80 -40 116t-124 36q-88 0 -132 -61.5t-44 -164.5q0 -37 8 -102l14 -107h346v-188h-313l2 -14q8 -43 8 -105q0 -158 -116 -264 q43 -4 116.5 -16.5t140 -20.5t136.5 -8q195 0 311 88l-22 -240q-92 -76 -289 -75q-111 0 -315.5 27.5t-276.5 27.5q-53 0 -110.5 -4t-86.5 -8l-30 -4v202q55 31 184 39q57 88 57 215q0 76 -10 146l-2 14h-201z" />
<glyph unicode="&#xa4;" d="M610 315q-131 0 -221 60l-98 -101l-113 111l103 102q-59 96 -60 226q0 127 60 223l-103 102l113 113l98 -100q96 57 221 57q131 0 226 -61l106 104l113 -113l-111 -110q53 -86 53 -215q0 -131 -53 -219l111 -109l-113 -111l-106 105q-93 -64 -226 -64zM610 479 q96 0 150.5 63.5t54.5 170.5q0 104 -54 168.5t-151 64.5q-98 0 -152.5 -64.5t-54.5 -168.5q0 -106 54.5 -170t152.5 -64z" />
<glyph unicode="&#xa5;" d="M223 545v110h219l-448 785h319l326 -572l340 572h264l-473 -785h229v-110h-237v-154h237v-110h-237v-281h-303v281h-236v110h236v154h-236z" />
<glyph unicode="&#xa6;" horiz-adv-x="606" d="M207 831v768h192v-768h-192zM207 -449v768h192v-768h-192z" />
<glyph unicode="&#xa7;" horiz-adv-x="1294" d="M553 -449q-156 0 -276.5 44.5t-180.5 105.5l47 233q76 -59 184.5 -99t219.5 -40q113 0 173 41t60 111q0 59 -41 93t-141 69l-149 51q-188 59 -274.5 140t-86.5 226q0 96 53.5 174t132.5 117q-100 94 -100 240q0 195 136 301t366 106q154 0 267.5 -44t174.5 -105l-49 -236 q-172 141 -379 142q-219 0 -219 -146q0 -59 42 -93t140 -69l154 -49q195 -63 285 -147t90 -238q0 -92 -54.5 -171t-132.5 -120q84 -88 84 -221q0 -195 -148.5 -305.5t-377.5 -110.5zM541 682l-76 27q-80 -47 -80 -136q0 -68 36 -106.5t132 -71.5l160 -53l92 -37 q78 61 78 146q0 68 -41 104.5t-142 71.5z" />
<glyph unicode="&#xa8;" horiz-adv-x="1247" d="M850 1196q-59 0 -98 41t-39 106q0 68 39 109t98 41t100 -42t41 -107.5t-41 -106.5t-100 -41zM395.5 1196q-59.5 0 -99.5 41t-40 106.5t40 105.5t99.5 40t100.5 -40t41 -105.5t-41 -106.5t-100.5 -41z" />
<glyph unicode="&#xa9;" horiz-adv-x="1992" d="M88 721q0 197 77 345t208 235.5t288.5 129.5t333.5 42q178 0 335 -42t289 -129.5t209 -235.5t77 -345t-77 -346.5t-209 -236.5t-288.5 -129t-335 -42t-334 41t-287.5 127t-209 236.5t-77 349.5zM248 721q0 -166 64.5 -290t174 -192.5t236.5 -100.5t272 -32 q115 0 219.5 19.5t203 66t170 115t114.5 175t43 239.5q0 164 -64.5 286.5t-174 191.5t-237.5 101.5t-274 32.5q-143 0 -271 -32.5t-237.5 -101.5t-174 -191.5t-64.5 -286.5zM440 715q0 211 156 323.5t412 112.5q205 0 325.5 -79t120.5 -216q0 -51 -16 -92l-258 -21 q8 27 8 62q0 135 -191 135q-115 0 -182 -55.5t-67 -163.5q0 -221 286 -221q233 0 359 129l59 -185q-57 -66 -173 -109.5t-275 -43.5q-264 0 -414 108.5t-150 315.5z" />
<glyph unicode="&#xaa;" horiz-adv-x="856" d="M301 752q-113 0 -183.5 48t-70.5 140q0 100 86 153.5t234 53.5q80 0 141 -17l2 82q2 61 -24.5 88t-84.5 27q-55 0 -80.5 -18.5t-25.5 -65.5q0 -41 12 -65l-184 8q-25 35 -25 88q0 96 85 145t231 49q315 0 311 -262q-6 -182 -6 -219q0 -45 15.5 -62.5t53.5 -17.5 q23 0 52 15l-19 -148q-41 -23 -114 -22q-131 0 -179 90q-69 -90 -227 -90zM375 887q72 0 127 43l2 102q-66 10 -82 10q-152 0 -152 -84q1 -71 105 -71z" />
<glyph unicode="&#xab;" horiz-adv-x="1277" d="M1044 180l-448 348v97l448 348l152 -105l-338 -293l338 -290zM477 180l-444 348v97l444 348l154 -105l-338 -293l338 -290z" />
<glyph unicode="&#xac;" d="M150 623v194h931v-594h-196v400h-735z" />
<glyph unicode="&#xad;" horiz-adv-x="751" d="M70 504v207h612v-207h-612z" />
<glyph unicode="&#xae;" horiz-adv-x="1992" d="M88 721q0 197 77 345t208 235.5t288.5 129.5t333.5 42q178 0 335 -42t289 -129.5t209 -235.5t77 -345t-77 -346.5t-209 -236.5t-288.5 -129t-335 -42t-334 41t-287.5 127t-209 236.5t-77 349.5zM248 721q0 -166 64.5 -290t174 -192.5t236.5 -100.5t272 -32 q115 0 219.5 19.5t203 66t170 115t114.5 175t43 239.5q0 164 -64.5 286.5t-174 191.5t-237.5 101.5t-274 32.5q-143 0 -271 -32.5t-237.5 -101.5t-174 -191.5t-64.5 -286.5zM967 592h-101v-291h-284v838h475q360 0 360 -267q0 -166 -178 -233q88 -23 127 -127l33 -88 q27 -82 71 -123h-305q-33 39 -55 119l-25 84q-14 47 -39.5 67.5t-78.5 20.5zM1004 942h-138v-199h138q139 0 139 105q0 94 -139 94z" />
<glyph unicode="&#xaf;" horiz-adv-x="1247" d="M295 1184v188h657v-188h-657z" />
<glyph unicode="&#xb0;" horiz-adv-x="608" d="M303 967q-111 0 -189.5 70.5t-78.5 173t79 174t189.5 71.5t190 -70.5t79.5 -175.5q0 -102 -78.5 -172.5t-191.5 -70.5zM303.5 1073q65.5 0 105.5 38t40 99q0 59 -40 97.5t-105.5 38.5t-104.5 -37t-39 -98.5t39 -99.5t104.5 -38z" />
<glyph unicode="&#xb1;" d="M150 623v194h368v400h197v-400h366v-194h-366v-400h-197v400h-368zM150 -197v197h931v-197h-931z" />
<glyph unicode="&#xb2;" d="M80 0v186l340 299l109 99q34 31 91.5 92t83 105t47 106.5t21.5 128.5q0 199 -207 198q-221 0 -221 -249l14 -109l-233 29q-25 68 -25 129q0 211 132.5 326.5t363.5 115.5q227 0 359 -116.5t132 -329.5q0 -100 -37.5 -192.5t-113.5 -175.5t-145.5 -141.5t-176.5 -135.5 l-151 -115h680v-250h-1063z" />
<glyph unicode="&#xb3;" d="M586 -25q-223 0 -347 96.5t-124 260.5q0 51 14 108l238 29q-8 -45 -9 -78q0 -182 211 -182q106 0 172 54t66 161q0 104 -65.5 149t-204.5 45h-88v193h67q133 0 200.5 59.5t67.5 167.5q0 186 -198 187q-209 0 -209 -215l12 -86l-237 30q-16 49 -17 105q0 184 132 290.5 t356 106.5q211 0 340 -99.5t129 -287.5q0 -127 -76 -218t-170 -116q123 -18 200.5 -108t77.5 -228q0 -201 -152.5 -312.5t-385.5 -111.5z" />
<glyph unicode="&#xb4;" horiz-adv-x="1247" d="M512 1137l-104 106l360 356l141 -159z" />
<glyph unicode="&#xb5;" horiz-adv-x="1263" d="M115 -449q14 100 14 226v1231l297 32v-610q4 -113 51 -163t144 -50q135 0 200 102v689l297 32v-1028l-297 -28v147q-90 -147 -307 -147q-35 0 -88 8v-215q0 -111 -16 -226h-295z" />
<glyph unicode="&#xb6;" horiz-adv-x="1404" d="M967 -449v1889h286v-1889h-286zM633 -449v738h-41q-240 0 -399.5 146.5t-159.5 428.5q0 188 84 321.5t213 194t286 60.5h193v-1889h-176z" />
<glyph unicode="&#xb7;" horiz-adv-x="606" d="M301 451q-70 0 -116 44t-46 113.5t46 114.5t116 45q72 0 119 -45t47 -114.5t-47 -113.5t-119 -44z" />
<glyph unicode="&#xb8;" horiz-adv-x="1247" d="M530 -449q-92 0 -145 25l-20 143q51 -23 139 -22q92 0 92 57.5t-152 89.5v29l109 127h152l-66 -82q143 -51 143 -172q0 -86 -68.5 -140.5t-183.5 -54.5z" />
<glyph unicode="&#xb9;" d="M549 0v1126q-41 -29 -133 -54t-170 -21l-72 231q123 4 274.5 55.5t219.5 102.5h184v-1440h-303z" />
<glyph unicode="&#xba;" horiz-adv-x="892" d="M446 752q-174 0 -285.5 90t-111.5 266t112.5 266t284.5 90t283 -90t111 -266t-112 -266t-282 -90zM446 907q80 0 123 53.5t43 147.5q0 92 -43 146.5t-123 54.5q-82 0 -123.5 -52.5t-41.5 -148.5q0 -92 41.5 -146.5t123.5 -54.5z" />
<glyph unicode="&#xbb;" horiz-adv-x="1277" d="M799 180l-154 105l338 290l-338 293l154 105l446 -348v-97zM233 180l-151 105l338 290l-338 293l151 105l447 -348v-97z" />
<glyph unicode="&#xbc;" horiz-adv-x="2111" d="M1169 147v136l480 510h231v-474h139v-172h-139v-147h-272v147h-439zM453 647v586q-27 -14 -94.5 -27.5t-118.5 -11.5l-62 164q88 -2 205 25.5t170 56.5h172v-793h-272zM752 -16l-105 57l793 1448l104 -57zM1608 549l-217 -230h217v230z" />
<glyph unicode="&#xbd;" horiz-adv-x="2111" d="M1235 0v127l229 147q8 4 40 26l41 28l37 25q28 19 37 28.5t29.5 27t28.5 30.5l19 31q10 17 14 34.5t4 36.5q0 92 -117 92q-137 0 -137 -119l8 -65l-204 12q-18 37 -19 82q0 125 100.5 191.5t278.5 66.5q172 0 269.5 -65.5t97.5 -190.5q0 -205 -346 -346l-60 -27h414v-172 h-764zM453 647v586q-27 -14 -94.5 -27.5t-118.5 -11.5l-62 164q88 -2 205 25.5t170 56.5h172v-793h-272zM713 -16l-105 57l793 1448l102 -57z" />
<glyph unicode="&#xbe;" horiz-adv-x="2111" d="M1169 147v136l480 510h231v-474h139v-172h-139v-147h-272v147h-439zM133 846q0 47 8 63l205 15q-6 -18 -6 -35q0 -94 135 -94q137 0 137 94q0 92 -170 92h-32v117h32q156 0 156 106q0 84 -125 84q-129 0 -129 -108l8 -41l-192 14q-12 25 -13 61q0 106 100.5 170t270.5 64 q166 0 262.5 -57.5t96.5 -159.5q0 -68 -51.5 -118t-118.5 -64q84 -12 137 -59.5t53 -125.5q0 -109 -113.5 -170t-302.5 -61q-170 0 -259 55.5t-89 157.5zM760 -16l-105 57l793 1448l104 -57zM1608 549l-217 -230h217v230z" />
<glyph unicode="&#xbf;" horiz-adv-x="985" d="M575.5 725q-71.5 0 -117.5 44t-46 113.5t46 113.5t117 44q70 0 116 -44t46 -113.5t-45 -113.5t-116.5 -44zM469 -432q-184 0 -292.5 90t-108.5 244q0 76 23.5 137t71.5 110.5t88 79t107 70.5l68 41q41 27 53.5 36t28.5 35.5t16 61.5q0 53 -51 109l223 24q61 -66 62 -160 q0 -96 -47 -151t-154 -123l-68 -43q-74 -45 -104.5 -95t-30.5 -118q0 -129 138 -129q160 0 159 182l-8 78l229 -22q16 -49 17 -88q0 -166 -111.5 -267.5t-308.5 -101.5z" />
<glyph unicode="&#xc0;" horiz-adv-x="1378" d="M8 0l537 1440h336l481 -1440h-311l-105 307h-549l-112 -307h-277zM686 1085l-209 -565h397zM920 1675l-105 -106l-397 303l141 160z" />
<glyph unicode="&#xc1;" horiz-adv-x="1378" d="M8 0l537 1440h336l481 -1440h-311l-105 307h-549l-112 -307h-277zM686 1085l-209 -565h397zM592 1569l-105 106l361 357l141 -160z" />
<glyph unicode="&#xc2;" horiz-adv-x="1378" d="M8 0l537 1440h336l481 -1440h-311l-105 307h-549l-112 -307h-277zM686 1085l-209 -565h397zM481 1565l-123 86l263 323h163l263 -323l-125 -86l-217 235z" />
<glyph unicode="&#xc3;" horiz-adv-x="1378" d="M8 0l537 1440h336l481 -1440h-311l-105 307h-549l-112 -307h-277zM686 1085l-209 -565h397zM408 1585l-123 66q6 92 76.5 154.5t154.5 62.5q70 0 190.5 -52.5t188.5 -52.5q47 0 70.5 28t35.5 77l125 -64q-8 -94 -77.5 -156.5t-155.5 -62.5q-72 0 -198 52.5t-177 52.5 q-81 -1 -110 -105z" />
<glyph unicode="&#xc4;" horiz-adv-x="1378" d="M8 0l537 1440h336l481 -1440h-311l-105 307h-549l-112 -307h-277zM686 1085l-209 -565h397zM929.5 1628q-59.5 0 -98 41t-38.5 107q0 68 38.5 108.5t98 40.5t100.5 -42t41 -107.5t-41 -106.5t-100.5 -41zM475.5 1628q-59.5 0 -99.5 41t-40 106.5t40 105.5t99.5 40 t100 -40t40.5 -105.5t-40.5 -106.5t-100 -41z" />
<glyph unicode="&#xc5;" horiz-adv-x="1378" d="M8 0l537 1440h336l481 -1440h-311l-105 307h-549l-112 -307h-277zM686 1085l-209 -565h397zM705 1585q-102 0 -169 62.5t-67 154.5t66.5 155.5t169.5 63.5q100 0 166.5 -63.5t66.5 -155.5t-66.5 -154.5t-166.5 -62.5zM704.5 1688q51.5 0 82 32.5t30.5 81.5t-30.5 83 t-82 34t-83 -34t-31.5 -83t31.5 -81.5t83 -32.5z" />
<glyph unicode="&#xc6;" horiz-adv-x="2027" d="M8 0l903 1440h975v-250h-635v-356h518v-205h-518v-379h641v-250h-944v307h-456l-193 -307h-291zM625 520h323v522z" />
<glyph unicode="&#xc7;" horiz-adv-x="1390" d="M682 -449q-92 0 -145 25l-21 143q51 -23 139 -22q92 0 92.5 57.5t-151.5 89.5v29l90 107q-279 20 -438.5 207.5t-159.5 533.5q0 362 188.5 552.5t491.5 190.5q242 0 388.5 -118.5t146.5 -339.5q0 -59 -25 -127l-283 -29q12 68 13 119q0 127 -59.5 182t-188.5 55 q-172 0 -263 -125t-91 -360q0 -481 397 -481q129 0 233.5 63.5t159.5 153.5l104 -213q-129 -238 -462 -264l-47 -62q143 -51 143 -172q0 -86 -68.5 -140.5t-183.5 -54.5z" />
<glyph unicode="&#xc8;" horiz-adv-x="1298" d="M176 0v1440h977v-250h-674v-356h561v-205h-561v-379h682v-250h-985zM881 1675l-105 -106l-397 303l141 160z" />
<glyph unicode="&#xc9;" horiz-adv-x="1298" d="M176 0v1440h977v-250h-674v-356h561v-205h-561v-379h682v-250h-985zM553 1569l-104 106l360 357l141 -160z" />
<glyph unicode="&#xca;" horiz-adv-x="1298" d="M176 0v1440h977v-250h-674v-356h561v-205h-561v-379h682v-250h-985zM442 1565l-123 86l263 323h163l263 -323l-125 -86l-217 235z" />
<glyph unicode="&#xcb;" horiz-adv-x="1298" d="M176 0v1440h977v-250h-674v-356h561v-205h-561v-379h682v-250h-985zM890.5 1628q-59.5 0 -98 41t-38.5 107q0 68 38.5 108.5t98 40.5t100.5 -42t41 -107.5t-41 -106.5t-100.5 -41zM436.5 1628q-59.5 0 -99.5 41t-40 106.5t40 105.5t99.5 40t100.5 -40t41 -105.5 t-41 -106.5t-100.5 -41z" />
<glyph unicode="&#xcc;" horiz-adv-x="655" d="M176 0v1440h303v-1440h-303zM543 1675l-105 -106l-397 303l141 160z" />
<glyph unicode="&#xcd;" horiz-adv-x="655" d="M176 0v1440h303v-1440h-303zM215 1569l-104 106l360 357l141 -160z" />
<glyph unicode="&#xce;" horiz-adv-x="655" d="M176 0v1440h303v-1440h-303zM104 1565l-122 86l262 323h164l262 -323l-125 -86l-217 235z" />
<glyph unicode="&#xcf;" horiz-adv-x="655" d="M176 0v1440h303v-1440h-303zM553 1628q-59 0 -98 41t-39 107q0 68 39 108.5t98 40.5t100 -42t41 -107.5t-41 -106.5t-100 -41zM98.5 1628q-59.5 0 -99.5 41t-40 106.5t40 105.5t99.5 40t100.5 -40t41 -105.5t-41 -106.5t-100.5 -41z" />
<glyph unicode="&#xd0;" horiz-adv-x="1531" d="M43 655v138h133v647h496q170 0 305 -37t242.5 -118t166 -222t58.5 -338q0 -250 -104.5 -416t-273.5 -237.5t-394 -71.5h-496v655h-133zM668 1190h-189v-397h303v-138h-303v-405h189q229 0 343.5 112.5t114.5 362.5q0 246 -115.5 355.5t-342.5 109.5z" />
<glyph unicode="&#xd1;" horiz-adv-x="1497" d="M176 0v1440h285l602 -936v936h260v-1440h-281l-606 928v-928h-260zM453 1585l-123 66q6 92 76.5 154.5t154.5 62.5q70 0 190.5 -52.5t188.5 -52.5q47 0 70.5 28t36.5 77l124 -64q-8 -94 -77.5 -156.5t-155.5 -62.5q-72 0 -198 52.5t-177 52.5q-81 -1 -110 -105z" />
<glyph unicode="&#xd2;" horiz-adv-x="1593" d="M799 -25q-313 0 -512 193.5t-199 552.5q0 356 198.5 549.5t512.5 193.5q309 0 507.5 -193.5t198.5 -549.5q0 -358 -197.5 -552t-508.5 -194zM799 240q188 0 289.5 120.5t101.5 360.5q0 236 -101.5 357.5t-289.5 121.5q-184 0 -288.5 -124t-104.5 -355 q0 -238 103.5 -359.5t289.5 -121.5zM1012 1675l-105 -106l-397 303l141 160z" />
<glyph unicode="&#xd3;" horiz-adv-x="1593" d="M799 -25q-313 0 -512 193.5t-199 552.5q0 356 198.5 549.5t512.5 193.5q309 0 507.5 -193.5t198.5 -549.5q0 -358 -197.5 -552t-508.5 -194zM799 240q188 0 289.5 120.5t101.5 360.5q0 236 -101.5 357.5t-289.5 121.5q-184 0 -288.5 -124t-104.5 -355 q0 -238 103.5 -359.5t289.5 -121.5zM684 1569l-104 106l360 357l141 -160z" />
<glyph unicode="&#xd4;" horiz-adv-x="1593" d="M799 -25q-313 0 -512 193.5t-199 552.5q0 356 198.5 549.5t512.5 193.5q309 0 507.5 -193.5t198.5 -549.5q0 -358 -197.5 -552t-508.5 -194zM799 240q188 0 289.5 120.5t101.5 360.5q0 236 -101.5 357.5t-289.5 121.5q-184 0 -288.5 -124t-104.5 -355 q0 -238 103.5 -359.5t289.5 -121.5zM573 1565l-122 86l262 323h164l262 -323l-125 -86l-217 235z" />
<glyph unicode="&#xd5;" horiz-adv-x="1593" d="M799 -25q-313 0 -512 193.5t-199 552.5q0 356 198.5 549.5t512.5 193.5q309 0 507.5 -193.5t198.5 -549.5q0 -358 -197.5 -552t-508.5 -194zM799 240q188 0 289.5 120.5t101.5 360.5q0 236 -101.5 357.5t-289.5 121.5q-184 0 -288.5 -124t-104.5 -355 q0 -238 103.5 -359.5t289.5 -121.5zM500 1585l-123 66q6 92 76.5 154.5t154.5 62.5q68 0 189 -52.5t190 -52.5q47 0 70.5 28t36.5 77l125 -64q-8 -94 -78 -156.5t-156 -62.5q-72 0 -197.5 52.5t-177.5 52.5q-81 -1 -110 -105z" />
<glyph unicode="&#xd6;" horiz-adv-x="1593" d="M799 -25q-313 0 -512 193.5t-199 552.5q0 356 198.5 549.5t512.5 193.5q309 0 507.5 -193.5t198.5 -549.5q0 -358 -197.5 -552t-508.5 -194zM799 240q188 0 289.5 120.5t101.5 360.5q0 236 -101.5 357.5t-289.5 121.5q-184 0 -288.5 -124t-104.5 -355 q0 -238 103.5 -359.5t289.5 -121.5zM1022 1628q-59 0 -98 41t-39 107q0 68 39 108.5t98 40.5t100 -42t41 -107.5t-41 -106.5t-100 -41zM567.5 1628q-59.5 0 -99.5 41t-40 106.5t40 105.5t99.5 40t100.5 -40t41 -105.5t-41 -106.5t-100.5 -41z" />
<glyph unicode="&#xd7;" d="M332 299l-137 137l282 285l-282 283l137 139l284 -285l283 285l139 -139l-284 -283l284 -285l-139 -137l-283 283z" />
<glyph unicode="&#xd8;" horiz-adv-x="1593" d="M207 -16l-84 73l129 150q-164 190 -164 514q0 356 198.5 549.5t512.5 193.5q262 0 444 -139l146 164l86 -76l-150 -166q180 -197 180 -526q0 -358 -197.5 -552t-508.5 -194q-279 0 -467 152zM799 240q188 0 289.5 120.5t101.5 360.5q0 182 -64 299l-602 -676 q103 -104 275 -104zM406 721q0 -172 55 -281l594 672q-100 88 -256 88q-184 0 -288.5 -124t-104.5 -355z" />
<glyph unicode="&#xd9;" horiz-adv-x="1511" d="M758 -25q-293 0 -445.5 139.5t-152.5 405.5v920h305v-922q0 -299 303 -299q143 0 225 78t82 221v922h277v-920q0 -272 -155.5 -408.5t-438.5 -136.5zM971 1675l-105 -106l-397 303l141 160z" />
<glyph unicode="&#xda;" horiz-adv-x="1511" d="M758 -25q-293 0 -445.5 139.5t-152.5 405.5v920h305v-922q0 -299 303 -299q143 0 225 78t82 221v922h277v-920q0 -272 -155.5 -408.5t-438.5 -136.5zM643 1569l-104 106l360 357l141 -160z" />
<glyph unicode="&#xdb;" horiz-adv-x="1511" d="M758 -25q-293 0 -445.5 139.5t-152.5 405.5v920h305v-922q0 -299 303 -299q143 0 225 78t82 221v922h277v-920q0 -272 -155.5 -408.5t-438.5 -136.5zM532 1565l-122 86l262 323h164l262 -323l-125 -86l-217 235z" />
<glyph unicode="&#xdc;" horiz-adv-x="1511" d="M758 -25q-293 0 -445.5 139.5t-152.5 405.5v920h305v-922q0 -299 303 -299q143 0 225 78t82 221v922h277v-920q0 -272 -155.5 -408.5t-438.5 -136.5zM981 1628q-59 0 -98 41t-39 107q0 68 39 108.5t98 40.5t100 -42t41 -107.5t-41 -106.5t-100 -41zM526.5 1628 q-59.5 0 -99.5 41t-40 106.5t40 105.5t99.5 40t100.5 -40t41 -105.5t-41 -106.5t-100.5 -41z" />
<glyph unicode="&#xdd;" horiz-adv-x="1275" d="M477 0v549l-502 891h328l354 -631l367 631h276l-516 -869v-571h-307zM545 1569l-105 106l361 357l141 -160z" />
<glyph unicode="&#xde;" horiz-adv-x="1288" d="M176 0v1440h303v-219h228q258 0 405.5 -112t147.5 -343q0 -236 -155 -364t-398 -128h-228v-274h-303zM688 973h-209v-494h223q121 0 188.5 72t67.5 190q0 232 -270 232z" />
<glyph unicode="&#xdf;" horiz-adv-x="1323" d="M793 -20q-121 0 -203 40l-33 189q70 -25 141 -25q106 0 171 65.5t65 201.5q0 119 -76 181t-205 62h-61v197h49q102 0 160.5 64.5t58.5 189.5q0 92 -52 146.5t-149 54.5q-217 0 -217 -279v-1067h-297v1055q0 238 133.5 367.5t393.5 129.5q213 0 349 -103t136 -296 q0 -135 -71.5 -223t-174.5 -115q121 -16 223.5 -115.5t102.5 -271.5q0 -211 -122.5 -329.5t-321.5 -118.5z" />
<glyph unicode="&#xe0;" horiz-adv-x="1234" d="M420 -16q-158 0 -254 68.5t-96 207.5q0 150 122.5 222.5t335.5 72.5q96 0 195 -23l2 148q0 94 -35 135t-125 41q-158 0 -157 -139q0 -61 16 -96l-246 16q-41 51 -41 131q0 143 126 217t325 74q240 0 338 -103.5t94 -291.5q-8 -252 -8 -340q0 -66 22.5 -92.5t77.5 -26.5 t100 20l-34 -184q-66 -57 -193 -57q-182 0 -237 131q-90 -131 -328 -131zM532 182q123 0 189 66v145q-61 14 -125 15q-213 0 -213 -119q-1 -107 149 -107zM799 1243l-105 -106l-397 303l141 159z" />
<glyph unicode="&#xe1;" horiz-adv-x="1234" d="M420 -16q-158 0 -254 68.5t-96 207.5q0 150 122.5 222.5t335.5 72.5q96 0 195 -23l2 148q0 94 -35 135t-125 41q-158 0 -157 -139q0 -61 16 -96l-246 16q-41 51 -41 131q0 143 126 217t325 74q240 0 338 -103.5t94 -291.5q-8 -252 -8 -340q0 -66 22.5 -92.5t77.5 -26.5 t100 20l-34 -184q-66 -57 -193 -57q-182 0 -237 131q-90 -131 -328 -131zM532 182q123 0 189 66v145q-61 14 -125 15q-213 0 -213 -119q-1 -107 149 -107zM471 1137l-104 106l360 356l141 -159z" />
<glyph unicode="&#xe2;" horiz-adv-x="1234" d="M420 -16q-158 0 -254 68.5t-96 207.5q0 150 122.5 222.5t335.5 72.5q96 0 195 -23l2 148q0 94 -35 135t-125 41q-158 0 -157 -139q0 -61 16 -96l-246 16q-41 51 -41 131q0 143 126 217t325 74q240 0 338 -103.5t94 -291.5q-8 -252 -8 -340q0 -66 22.5 -92.5t77.5 -26.5 t100 20l-34 -184q-66 -57 -193 -57q-182 0 -237 131q-90 -131 -328 -131zM532 182q123 0 189 66v145q-61 14 -125 15q-213 0 -213 -119q-1 -107 149 -107zM360 1133l-122 86l262 323h164l262 -323l-125 -86l-217 235z" />
<glyph unicode="&#xe3;" horiz-adv-x="1234" d="M420 -16q-158 0 -254 68.5t-96 207.5q0 150 122.5 222.5t335.5 72.5q96 0 195 -23l2 148q0 94 -35 135t-125 41q-158 0 -157 -139q0 -61 16 -96l-246 16q-41 51 -41 131q0 143 126 217t325 74q240 0 338 -103.5t94 -291.5q-8 -252 -8 -340q0 -66 22.5 -92.5t77.5 -26.5 t100 20l-34 -184q-66 -57 -193 -57q-182 0 -237 131q-90 -131 -328 -131zM532 182q123 0 189 66v145q-61 14 -125 15q-213 0 -213 -119q-1 -107 149 -107zM287 1153l-123 66q6 92 76.5 154.5t154.5 62.5q68 0 189 -52.5t190 -52.5q47 0 70.5 27.5t36.5 77.5l125 -64 q-8 -94 -78 -156.5t-156 -62.5q-72 0 -197.5 52t-177.5 52q-81 0 -110 -104z" />
<glyph unicode="&#xe4;" horiz-adv-x="1234" d="M420 -16q-158 0 -254 68.5t-96 207.5q0 150 122.5 222.5t335.5 72.5q96 0 195 -23l2 148q0 94 -35 135t-125 41q-158 0 -157 -139q0 -61 16 -96l-246 16q-41 51 -41 131q0 143 126 217t325 74q240 0 338 -103.5t94 -291.5q-8 -252 -8 -340q0 -66 22.5 -92.5t77.5 -26.5 t100 20l-34 -184q-66 -57 -193 -57q-182 0 -237 131q-90 -131 -328 -131zM532 182q123 0 189 66v145q-61 14 -125 15q-213 0 -213 -119q-1 -107 149 -107zM809 1196q-59 0 -98 41t-39 106q0 68 39 109t98 41t100 -42t41 -107.5t-41 -106.5t-100 -41zM354.5 1196 q-59.5 0 -99.5 41t-40 106.5t40 105.5t99.5 40t100.5 -40t41 -105.5t-41 -106.5t-100.5 -41z" />
<glyph unicode="&#xe5;" horiz-adv-x="1234" d="M420 -16q-158 0 -254 68.5t-96 207.5q0 150 122.5 222.5t335.5 72.5q96 0 195 -23l2 148q0 94 -35 135t-125 41q-158 0 -157 -139q0 -61 16 -96l-246 16q-41 51 -41 131q0 143 126 217t325 74q240 0 338 -103.5t94 -291.5q-8 -252 -8 -340q0 -66 22.5 -92.5t77.5 -26.5 t100 20l-34 -184q-66 -57 -193 -57q-182 0 -237 131q-90 -131 -328 -131zM532 182q123 0 189 66v145q-61 14 -125 15q-213 0 -213 -119q-1 -107 149 -107zM584 1153q-102 0 -169 62.5t-67 154.5t66.5 155.5t169.5 63.5q100 0 166.5 -63.5t66.5 -155.5t-66.5 -154.5 t-166.5 -62.5zM583.5 1255q51.5 0 82 33t30.5 82t-30.5 83t-82 34t-83 -34t-31.5 -83t31.5 -82t83 -33z" />
<glyph unicode="&#xe6;" horiz-adv-x="1765" d="M461 -16q-180 0 -285.5 68.5t-105.5 207.5q0 150 122.5 222.5t335.5 72.5q111 0 197 -23v134q0 94 -35 135t-125 41q-158 0 -157 -125q0 -61 16 -96l-246 16q-41 53 -41 117q0 143 126 216.5t325 73.5q207 0 323 -106q135 102 326 102q215 0 335 -102t120 -276 q0 -49 -27 -191h-651q20 -258 293 -258q106 0 196 37t137 94l25 -194q-39 -61 -144.5 -113.5t-263.5 -52.5q-268 0 -407 143q-51 -63 -153.5 -103t-235.5 -40zM770 250q-27 61 -39 141q-70 16 -135 17q-213 0 -213 -119q0 -113 160 -113q127 0 227 74zM1233 825 q-174 0 -211 -207h381v29q0 178 -170 178z" />
<glyph unicode="&#xe7;" horiz-adv-x="1105" d="M522 -449q-92 0 -145 25l-21 143q51 -23 140 -22q92 0 92 57.5t-152 89.5v29l96 115q-213 18 -336.5 150t-123.5 378q0 256 144 390t388 134q209 0 328 -84t119 -237q0 -90 -31 -146l-252 -16q12 29 12 94q0 86 -42 125t-130 39q-225 0 -225 -295q0 -160 69.5 -232.5 t206.5 -72.5q106 0 193.5 37t132.5 92l25 -215q-35 -49 -119 -90t-205 -51l-55 -70q143 -51 143 -172q0 -86 -68.5 -140.5t-183.5 -54.5z" />
<glyph unicode="&#xe8;" horiz-adv-x="1132" d="M625 -16q-262 0 -407.5 135t-145.5 395q0 246 144 386t388 140q215 0 335 -102t120 -276q0 -76 -29 -191h-647q20 -258 291 -258q106 0 195 37t137 94l24 -194q-39 -61 -144 -113.5t-261 -52.5zM598 825q-174 0 -207 -207h377v29q0 178 -170 178zM815 1243l-104 -106 l-398 303l142 159z" />
<glyph unicode="&#xe9;" horiz-adv-x="1132" d="M625 -16q-262 0 -407.5 135t-145.5 395q0 246 144 386t388 140q215 0 335 -102t120 -276q0 -76 -29 -191h-647q20 -258 291 -258q106 0 195 37t137 94l24 -194q-39 -61 -144 -113.5t-261 -52.5zM598 825q-174 0 -207 -207h377v29q0 178 -170 178zM487 1137l-104 106 l360 356l142 -159z" />
<glyph unicode="&#xea;" horiz-adv-x="1132" d="M625 -16q-262 0 -407.5 135t-145.5 395q0 246 144 386t388 140q215 0 335 -102t120 -276q0 -76 -29 -191h-647q20 -258 291 -258q106 0 195 37t137 94l24 -194q-39 -61 -144 -113.5t-261 -52.5zM598 825q-174 0 -207 -207h377v29q0 178 -170 178zM377 1133l-123 86 l262 323h164l262 -323l-125 -86l-217 235z" />
<glyph unicode="&#xeb;" horiz-adv-x="1132" d="M625 -16q-262 0 -407.5 135t-145.5 395q0 246 144 386t388 140q215 0 335 -102t120 -276q0 -76 -29 -191h-647q20 -258 291 -258q106 0 195 37t137 94l24 -194q-39 -61 -144 -113.5t-261 -52.5zM598 825q-174 0 -207 -207h377v29q0 178 -170 178zM825.5 1196 q-59.5 0 -98.5 41t-39 106q0 68 39 109t98.5 41t100.5 -42t41 -107.5t-41 -106.5t-100.5 -41zM370.5 1196q-59.5 0 -99.5 41t-40 106.5t40 105.5t99.5 40t100.5 -40t41 -105.5t-41 -106.5t-100.5 -41z" />
<glyph unicode="&#xec;" horiz-adv-x="587" d="M145 0v1012l297 28v-1040h-297zM512 1243l-104 -106l-398 303l142 159z" />
<glyph unicode="&#xed;" horiz-adv-x="587" d="M145 0v1012l297 28v-1040h-297zM184 1137l-104 106l360 356l142 -159z" />
<glyph unicode="&#xee;" horiz-adv-x="587" d="M145 0v1012l297 28v-1040h-297zM74 1133l-123 86l262 323h164l262 -323l-125 -86l-217 235z" />
<glyph unicode="&#xef;" horiz-adv-x="587" d="M145 0v1012l297 28v-1040h-297zM522.5 1196q-59.5 0 -98.5 41t-39 106q0 68 39 109t98.5 41t100.5 -42t41 -107.5t-41 -106.5t-100.5 -41zM67.5 1196q-59.5 0 -99.5 41t-40 106.5t40 105.5t99.5 40t100.5 -40t41 -105.5t-41 -106.5t-100.5 -41z" />
<glyph unicode="&#xf0;" horiz-adv-x="1208" d="M520 1049l-88 94l146 125q-82 35 -201 35q-152 0 -250 -52l45 217q115 68 285 68q190 0 338 -80l149 127l88 -88l-135 -115q227 -211 227 -665q0 -338 -147.5 -536.5t-411.5 -198.5q-227 0 -358 125.5t-131 347.5q0 223 128 353t335 130q182 0 270 -98q-20 244 -123 356z M575 209q111 0 173.5 108.5t64.5 319.5q-63 80 -188 80q-111 0 -175.5 -68.5t-64.5 -197.5q0 -121 52 -181.5t138 -60.5z" />
<glyph unicode="&#xf1;" horiz-adv-x="1263" d="M145 0v1012l297 28v-155q86 156 308 155q385 0 385 -450v-590h-297v569q0 125 -46.5 181.5t-146.5 56.5q-131 0 -203 -111v-696h-297zM344 1153l-123 66q6 92 77 154.5t155 62.5q68 0 188.5 -52.5t189.5 -52.5q47 0 71 27.5t36 77.5l125 -64q-8 -94 -78 -156.5 t-156 -62.5q-72 0 -197.5 52t-176.5 52q-82 0 -111 -104z" />
<glyph unicode="&#xf2;" horiz-adv-x="1247" d="M625 -20q-244 0 -398.5 136t-154.5 396q0 258 157.5 395t395.5 137q236 0 392.5 -137t156.5 -395q0 -260 -153.5 -396t-395.5 -136zM625 213q115 0 178 76t63 223q0 145 -63.5 222t-177.5 77q-117 0 -179.5 -76t-62.5 -223t62.5 -223t179.5 -76zM840 1243l-105 -106 l-397 303l141 159z" />
<glyph unicode="&#xf3;" horiz-adv-x="1247" d="M625 -20q-244 0 -398.5 136t-154.5 396q0 258 157.5 395t395.5 137q236 0 392.5 -137t156.5 -395q0 -260 -153.5 -396t-395.5 -136zM625 213q115 0 178 76t63 223q0 145 -63.5 222t-177.5 77q-117 0 -179.5 -76t-62.5 -223t62.5 -223t179.5 -76zM512 1137l-104 106 l360 356l141 -159z" />
<glyph unicode="&#xf4;" horiz-adv-x="1247" d="M625 -20q-244 0 -398.5 136t-154.5 396q0 258 157.5 395t395.5 137q236 0 392.5 -137t156.5 -395q0 -260 -153.5 -396t-395.5 -136zM625 213q115 0 178 76t63 223q0 145 -63.5 222t-177.5 77q-117 0 -179.5 -76t-62.5 -223t62.5 -223t179.5 -76zM401 1133l-122 86 l262 323h164l262 -323l-125 -86l-217 235z" />
<glyph unicode="&#xf5;" horiz-adv-x="1247" d="M625 -20q-244 0 -398.5 136t-154.5 396q0 258 157.5 395t395.5 137q236 0 392.5 -137t156.5 -395q0 -260 -153.5 -396t-395.5 -136zM625 213q115 0 178 76t63 223q0 145 -63.5 222t-177.5 77q-117 0 -179.5 -76t-62.5 -223t62.5 -223t179.5 -76zM328 1153l-123 66 q6 92 76.5 154.5t154.5 62.5q68 0 188.5 -52.5t190.5 -52.5q47 0 70.5 27.5t36.5 77.5l125 -64q-8 -94 -78 -156.5t-156 -62.5q-72 0 -198 52t-177 52q-81 0 -110 -104z" />
<glyph unicode="&#xf6;" horiz-adv-x="1247" d="M625 -20q-244 0 -398.5 136t-154.5 396q0 258 157.5 395t395.5 137q236 0 392.5 -137t156.5 -395q0 -260 -153.5 -396t-395.5 -136zM625 213q115 0 178 76t63 223q0 145 -63.5 222t-177.5 77q-117 0 -179.5 -76t-62.5 -223t62.5 -223t179.5 -76zM850 1196q-59 0 -98 41 t-39 106q0 68 39 109t98 41t100 -42t41 -107.5t-41 -106.5t-100 -41zM395.5 1196q-59.5 0 -99.5 41t-40 106.5t40 105.5t99.5 40t100.5 -40t41 -105.5t-41 -106.5t-100.5 -41z" />
<glyph unicode="&#xf7;" d="M616.5 936q-55.5 0 -95.5 40t-40 93q0 57 39 96t96 39q61 0 97.5 -38t36.5 -97q0 -55 -39 -94t-94.5 -39zM150 623v194h931v-194h-931zM616 236q-57 0 -96 39.5t-39 95t40 94.5t95 39q61 0 97.5 -39t36.5 -94.5t-39.5 -95t-94.5 -39.5z" />
<glyph unicode="&#xf8;" horiz-adv-x="1247" d="M139 -37l-67 70l121 119q-121 137 -121 360q0 258 157.5 395t395.5 137q215 0 356 -110l127 127l66 -70l-121 -121q121 -137 121 -358q0 -260 -154 -396t-395 -136q-217 0 -363 106zM625 213q115 0 178 76t63 223q0 88 -24 150l-387 -386q57 -63 170 -63zM383 512 q0 -98 20 -150l390 383q-63 66 -168 66q-117 0 -179.5 -76t-62.5 -223z" />
<glyph unicode="&#xf9;" horiz-adv-x="1263" d="M514 -16q-385 0 -385 444v580l297 32v-585q0 -125 46 -181.5t149 -56.5q135 0 200 102v689l297 32v-1028l-297 -28v147q-92 -147 -307 -147zM856 1243l-104 -106l-398 303l142 159z" />
<glyph unicode="&#xfa;" horiz-adv-x="1263" d="M514 -16q-385 0 -385 444v580l297 32v-585q0 -125 46 -181.5t149 -56.5q135 0 200 102v689l297 32v-1028l-297 -28v147q-92 -147 -307 -147zM528 1137l-104 106l360 356l142 -159z" />
<glyph unicode="&#xfb;" horiz-adv-x="1263" d="M514 -16q-385 0 -385 444v580l297 32v-585q0 -125 46 -181.5t149 -56.5q135 0 200 102v689l297 32v-1028l-297 -28v147q-92 -147 -307 -147zM418 1133l-123 86l262 323h164l262 -323l-125 -86l-217 235z" />
<glyph unicode="&#xfc;" horiz-adv-x="1263" d="M514 -16q-385 0 -385 444v580l297 32v-585q0 -125 46 -181.5t149 -56.5q135 0 200 102v689l297 32v-1028l-297 -28v147q-92 -147 -307 -147zM866.5 1196q-59.5 0 -98.5 41t-39 106q0 68 39 109t98.5 41t100.5 -42t41 -107.5t-41 -106.5t-100.5 -41zM411.5 1196 q-59.5 0 -99.5 41t-40 106.5t40 105.5t99.5 40t100.5 -40t41 -105.5t-41 -106.5t-100.5 -41z" />
<glyph unicode="&#xfd;" horiz-adv-x="1097" d="M231 -449l193 433l-426 1024h330l252 -654l256 654h268l-588 -1457h-285zM471 1137l-104 106l360 356l141 -159z" />
<glyph unicode="&#xfe;" horiz-adv-x="1251" d="M678 -16q-162 0 -236 67v-500h-297v1973l297 28v-671q41 72 120 115.5t188 43.5q199 0 314.5 -136t115.5 -367q0 -254 -136.5 -403.5t-365.5 -149.5zM641 815q-139 0 -199 -106v-457q63 -66 181 -66q119 0 184 87t65 241q0 145 -58 223t-173 78z" />
<glyph unicode="&#xff;" horiz-adv-x="1097" d="M231 -449l193 433l-426 1024h330l252 -654l256 654h268l-588 -1457h-285zM809 1196q-59 0 -98 41t-39 106q0 68 39 109t98 41t100 -42t41 -107.5t-41 -106.5t-100 -41zM354.5 1196q-59.5 0 -99.5 41t-40 106.5t40 105.5t99.5 40t100.5 -40t41 -105.5t-41 -106.5 t-100.5 -41z" />
<glyph unicode="&#x152;" horiz-adv-x="2312" d="M770 -25q-305 0 -493.5 198t-188.5 548q0 348 188.5 545.5t493.5 197.5q252 0 420 -151v127h979v-250h-678v-356h563v-205h-563v-379h684v-250h-985v127q-164 -152 -420 -152zM799 240q188 0 289.5 120.5t101.5 360.5v22q-6 225 -107.5 341t-283.5 116 q-184 0 -288.5 -124t-104.5 -355q0 -238 103.5 -359.5t289.5 -121.5z" />
<glyph unicode="&#x153;" horiz-adv-x="1904" d="M625 -20q-244 0 -398.5 136t-154.5 396q0 258 157.5 395t395.5 137q236 0 381 -149q135 145 368 145q215 0 336 -102t121 -276q0 -76 -29 -191h-649q20 -258 291 -258q106 0 197.5 37t136.5 94l24 -194q-39 -61 -144.5 -113.5t-260.5 -52.5q-260 0 -393 143 q-143 -147 -379 -147zM625 213q115 0 178 76t63 223q0 145 -63.5 222t-177.5 77q-117 0 -179.5 -76t-62.5 -223t62.5 -223t179.5 -76zM1370 825q-172 0 -209 -207h379v29q0 178 -170 178z" />
<glyph unicode="&#x178;" horiz-adv-x="1275" d="M477 0v549l-502 891h328l354 -631l367 631h276l-516 -869v-571h-307zM882.5 1628q-59.5 0 -98.5 41t-39 107q0 68 39 108.5t98.5 40.5t100.5 -42t41 -107.5t-41 -106.5t-100.5 -41zM428 1628q-59 0 -99 41t-40 106.5t40 105.5t99 40t100 -40t41 -105.5t-41 -106.5 t-100 -41z" />
<glyph unicode="&#x2c6;" horiz-adv-x="1247" d="M401 1133l-122 86l262 323h164l262 -323l-125 -86l-217 235z" />
<glyph unicode="&#x2dc;" horiz-adv-x="1247" d="M328 1153l-123 66q6 92 76.5 154.5t154.5 62.5q68 0 188.5 -52.5t190.5 -52.5q47 0 70.5 27.5t36.5 77.5l125 -64q-8 -94 -78 -156.5t-156 -62.5q-72 0 -198 52t-177 52q-81 0 -110 -104z" />
<glyph unicode="&#x2000;" horiz-adv-x="1015" />
<glyph unicode="&#x2001;" horiz-adv-x="2031" />
<glyph unicode="&#x2002;" horiz-adv-x="1015" />
<glyph unicode="&#x2003;" horiz-adv-x="2031" />
<glyph unicode="&#x2004;" horiz-adv-x="675" />
<glyph unicode="&#x2005;" horiz-adv-x="507" />
<glyph unicode="&#x2006;" horiz-adv-x="337" />
<glyph unicode="&#x2007;" horiz-adv-x="337" />
<glyph unicode="&#x2008;" horiz-adv-x="253" />
<glyph unicode="&#x2009;" horiz-adv-x="405" />
<glyph unicode="&#x200a;" horiz-adv-x="112" />
<glyph unicode="&#x2010;" horiz-adv-x="751" d="M70 504v207h612v-207h-612z" />
<glyph unicode="&#x2011;" horiz-adv-x="751" d="M70 504v207h612v-207h-612z" />
<glyph unicode="&#x2012;" horiz-adv-x="751" d="M70 504v207h612v-207h-612z" />
<glyph unicode="&#x2013;" horiz-adv-x="999" d="M33 504v207h936v-207h-936z" />
<glyph unicode="&#x2014;" horiz-adv-x="2000" d="M33 504v207h1935v-207h-1935z" />
<glyph unicode="&#x2018;" horiz-adv-x="532" d="M270 891q-76 0 -123 51t-47 148q0 137 60.5 251.5t150.5 174.5l144 -66q-70 -43 -113 -112.5t-45 -127.5q55 -10 94 -51t39 -110q0 -68 -46 -113t-114 -45z" />
<glyph unicode="&#x2019;" horiz-adv-x="532" d="M219 836l-141 69q70 43 111.5 110.5t46.5 127.5q-53 10 -92.5 51t-39.5 113q0 68 45.5 112.5t112.5 44.5q78 0 124 -51t46 -149q0 -137 -60.5 -253t-152.5 -175z" />
<glyph unicode="&#x201a;" horiz-adv-x="532" d="M219 -326l-141 68q70 41 111.5 109.5t46.5 128.5q-53 10 -92.5 52t-39.5 109.5t45.5 112.5t112.5 45q78 0 124 -50t46 -147q0 -139 -60.5 -255t-152.5 -173z" />
<glyph unicode="&#x201c;" horiz-adv-x="980" d="M721 891q-78 0 -125 51t-47 148q0 137 60.5 252.5t150.5 173.5l141 -66q-68 -43 -110.5 -112.5t-47.5 -127.5q57 -10 96.5 -51t39.5 -110q0 -68 -46 -113t-112 -45zM270 891q-76 0 -123 51t-47 148q0 137 60.5 251.5t150.5 174.5l144 -66q-70 -43 -113 -112.5t-45 -127.5 q55 -10 94 -51t39 -110q0 -68 -46 -113t-114 -45z" />
<glyph unicode="&#x201d;" horiz-adv-x="980" d="M668 836l-142 69q70 43 112 110.5t46 127.5q-53 10 -92 51t-39 113q0 68 45 112.5t113 44.5q78 0 124 -51t46 -149q0 -137 -60.5 -253t-152.5 -175zM219 836l-141 69q70 43 111.5 110.5t46.5 127.5q-53 10 -92.5 51t-39.5 113q0 68 45.5 112.5t112.5 44.5q78 0 124 -51 t46 -149q0 -137 -60.5 -253t-152.5 -175z" />
<glyph unicode="&#x201e;" horiz-adv-x="980" d="M668 -326l-142 68q70 41 112 109.5t46 128.5q-53 10 -92 52t-39 109.5t45 112.5t113 45q78 0 124 -50t46 -147q0 -139 -60.5 -255t-152.5 -173zM219 -326l-141 68q70 41 111.5 109.5t46.5 128.5q-53 10 -92.5 52t-39.5 109.5t45.5 112.5t112.5 45q78 0 124 -50t46 -147 q0 -139 -60.5 -255t-152.5 -173z" />
<glyph unicode="&#x2022;" horiz-adv-x="960" d="M479 256q-147 0 -248.5 103.5t-101.5 249t101.5 250t248.5 104.5q150 0 251 -104.5t101 -250t-101 -249t-251 -103.5z" />
<glyph unicode="&#x2026;" horiz-adv-x="1818" d="M301 -16q-70 0 -116 44t-46 113.5t45 113.5t117 44t119 -44t47 -113.5t-47 -113.5t-119 -44zM907 -16q-70 0 -116 44t-46 113.5t45.5 113.5t117 44t118.5 -44t47 -113.5t-47 -113.5t-119 -44zM1513 -16q-70 0 -115.5 44t-45.5 113.5t45 113.5t116.5 44t118.5 -44 t47 -113.5t-47 -113.5t-119 -44z" />
<glyph unicode="&#x202f;" horiz-adv-x="405" />
<glyph unicode="&#x2039;" horiz-adv-x="712" d="M477 180l-444 348v97l444 348l154 -105l-338 -293l338 -290z" />
<glyph unicode="&#x203a;" horiz-adv-x="712" d="M233 180l-151 105l338 290l-338 293l151 105l447 -348v-97z" />
<glyph unicode="&#x205f;" horiz-adv-x="507" />
<glyph unicode="&#x20ac;" d="M25 801v119h131q43 264 189.5 404t377.5 140q221 0 347 -119.5t126 -328.5q0 -59 -25 -127l-256 -31q14 63 15 111q0 238 -215 237.5t-260 -286.5h266v-119h-277q-2 -27 -2 -80v-74h279v-119h-268q16 -145 76.5 -216.5t177.5 -71.5q225 0 225 270l-8 80l258 -29 q16 -45 16 -108q0 -205 -144.5 -341.5t-361.5 -136.5q-244 0 -377 136.5t-163 416.5h-127v119h116v74q0 12 1 38.5t1 41.5h-118z" />
<glyph unicode="&#x2122;" horiz-adv-x="1773" d="M821 776v664h197l225 -426l232 426h198v-664h-190v357l-191 -357h-108l-178 342v-342h-185zM35 1286v154h704v-154h-239v-510h-224v510h-241z" />
<glyph unicode="&#xe000;" horiz-adv-x="1010" d="M0 1010h1010v-1010h-1010v1010z" />
<glyph unicode="&#xfb01;" horiz-adv-x="1404" d="M1114 1202q-70 0 -115 40t-45 114q0 70 45 111.5t115 41.5q68 0 112 -42t44 -111q0 -74 -44 -114t-112 -40zM962 0v1012l297 28v-1040h-297zM39 788l37 220h137v79q0 229 108.5 347t319.5 118q176 0 269.5 -71.5t93.5 -208.5q0 -80 -25 -133l-236 -21q12 43 13 94 q0 74 -27 106t-84 32q-76 0 -106.5 -60.5t-30.5 -181.5v-100h278v-220h-278v-788h-295v788h-174z" />
<glyph unicode="&#xfb02;" horiz-adv-x="1404" d="M962 0v1524l297 28v-1552h-297zM39 788l37 220h137v79q0 229 108.5 347t319.5 118q176 0 269.5 -71.5t93.5 -208.5q0 -80 -25 -133l-236 -21q12 43 13 94q0 74 -27 106t-84 32q-76 0 -106.5 -60.5t-30.5 -181.5v-100h278v-220h-278v-788h-295v788h-174z" />
<glyph unicode="&#xfb03;" horiz-adv-x="2222" d="M1931 1202q-70 0 -115 40t-45 114q0 70 45 111.5t115 41.5q68 0 112 -42t44 -111q0 -74 -44 -114t-112 -40zM1779 0v1012l297 28v-1040h-297zM856 788l37 220h137v79q0 229 108.5 347t319.5 118q176 0 269.5 -71.5t93.5 -208.5q0 -80 -25 -133l-236 -21q12 43 13 94 q0 74 -27 106t-84 32q-76 0 -106.5 -60.5t-30.5 -181.5v-100h278v-220h-278v-788h-295v788h-174zM39 788l37 220h137v79q0 229 108.5 347t319.5 118q176 0 269.5 -71.5t93.5 -208.5q0 -80 -25 -133l-236 -21q12 43 13 94q0 74 -27 106t-84 32q-76 0 -106.5 -60.5 t-30.5 -181.5v-100h278v-220h-278v-788h-295v788h-174z" />
<glyph unicode="&#xfb04;" horiz-adv-x="2222" d="M1779 0v1524l297 28v-1552h-297zM856 788l37 220h137v79q0 229 108.5 347t319.5 118q176 0 269.5 -71.5t93.5 -208.5q0 -80 -25 -133l-236 -21q12 43 13 94q0 74 -27 106t-84 32q-76 0 -106.5 -60.5t-30.5 -181.5v-100h278v-220h-278v-788h-295v788h-174zM39 788l37 220 h137v79q0 229 108.5 347t319.5 118q176 0 269.5 -71.5t93.5 -208.5q0 -80 -25 -133l-236 -21q12 43 13 94q0 74 -27 106t-84 32q-76 0 -106.5 -60.5t-30.5 -181.5v-100h278v-220h-278v-788h-295v788h-174z" />
</font>
</defs>
</svg>
